<svg width="30" height="30" fill="none" xmlns="http://www.w3.org/2000/svg"><path d="M28.785 1.104c-.08-.06-.366-.231-.637.061L16.243 13.917a.501.501 0 01-.608.095L8.73 10.19c-.314-.173-.534.037-.594.105a.494.494 0 00-.027.645l7.907 10.697a.87.87 0 00.76.362.876.876 0 00.72-.447L28.92 1.771c.219-.378-.075-.622-.136-.668z" fill="#04CE78"/><path d="M28.073 10.473a.508.508 0 00-.427.013.49.49 0 00-.254.589c.504 1.57.697 3.219.573 4.905-.482 6.566-6.025 11.843-12.618 12.015a13.047 13.047 0 01-9.822-4.101 13.043 13.043 0 01-3.471-10.08c.558-6.267 5.713-11.332 11.99-11.78a12.975 12.975 0 016.652 1.283.5.5 0 00.658-.197.508.508 0 00.046-.406.485.485 0 00-.25-.295A13.85 13.85 0 0015 .999 13.87 13.87 0 004.797 5.412C2.124 8.257.785 11.978 1.028 15.893c.435 7.021 6.058 12.644 13.079 13.079 3.912.242 7.636-1.095 10.48-3.769A13.872 13.872 0 0029 15a13.91 13.91 0 00-.652-4.227.483.483 0 00-.275-.3z" fill="#04CE78"/></svg>