<svg width="60" height="60" fill="none" xmlns="http://www.w3.org/2000/svg"><g clip-path="url(#clip0_295_5986)"><path d="M16.867 14.386v6.964H15.2V33.7l5.123 1.07 3.932-18.842-7.387-1.542z" fill="#04CE78"/><path d="M16.674 28.791c.467-4.984 1.521-9.659 3.017-13.815l-3.957-.826-3.933 18.841 4.61.962c.013-1.69.099-3.414.262-5.162z" fill="#1F5FFF"/><path d="M42.241 23.688h7.811v15.005h-7.81V23.688z" fill="#04CE78"/><path d="M45.498 29.18a4.382 4.382 0 014.382-4.382h.172v-1.11h-7.81v15.005h3.256V29.18z" fill="#1F5FFF"/><path d="M46.147 59.121a5.995 5.995 0 01-5.986-6.326l.743-13.463c.055-.998.88-1.78 1.88-1.78h6.725c1 0 1.825.782 1.88 1.78l.744 13.463a5.995 5.995 0 01-5.986 6.326z" fill="#6A829A"/><path d="M45.498 55.618V37.553h-2.714c-1 0-1.825.78-1.88 1.779l-.743 13.463a5.995 5.995 0 006.98 6.243 4.372 4.372 0 01-1.643-3.42z" fill="#516980"/><path d="M47.244.925c6.579.556 11.745 6.073 11.745 12.797 0 6.35-4.61 11.625-10.666 12.659l-4.275-.483-5.496-12.245 4.45-11.573L47.243.925z" fill="#6A829A"/><path d="M42.241 13.148A17.38 17.38 0 0147.243.926c-.361-.03-.727-.047-1.097-.047-7.093 0-12.842 5.75-12.842 12.843 0 7.092 5.75 12.842 12.842 12.842.742 0 1.47-.064 2.177-.184a17.397 17.397 0 01-6.082-13.232z" fill="#516980"/><path d="M43.747 6.005a8.052 8.052 0 012.4-.364c4.455 0 8.08 3.625 8.08 8.08 0 4.456-3.625 8.081-8.08 8.081a8.09 8.09 0 01-1.713-.183l-2.405-1.554-2.655-6.343 1.683-5.323 2.69-2.394z" fill="#04CE78"/><path d="M42.241 13.148c0-2.548.547-4.968 1.53-7.15-3.3 1.018-5.705 4.095-5.705 7.724 0 3.868 2.733 7.108 6.368 7.896a17.355 17.355 0 01-2.193-8.47z" fill="#1F5FFF"/><path d="M24.877 4.91a3.643 3.643 0 012.82 4.148l-1.125 6.889a3.642 3.642 0 01-4.467 2.948l-3.413-.842-1.622-2.094.335-5.377 4.774-4.94 2.698-.731z" fill="#6A829A"/><path d="M24.877 4.912a3.689 3.689 0 00-.475-.071l-7.585-.625a3.642 3.642 0 00-3.893 3.042l-.93 5.69a3.642 3.642 0 002.722 4.123l3.976.982c1.49-5.13 3.629-9.62 6.185-13.14z" fill="#516980"/><path d="M16.365 59.121a5.995 5.995 0 01-5.986-6.326l.743-20.565c.055-.998.88-1.78 1.88-1.78h6.725c1 0 1.826.782 1.88 1.78l.744 20.566a5.995 5.995 0 01-5.986 6.325z" fill="#6A829A"/><path d="M15.549 55.618V33.252c0-1.065.38-2.042 1.012-2.801h-3.559c-1 0-1.825.781-1.88 1.78l-.743 20.564a5.995 5.995 0 006.84 6.264 4.373 4.373 0 01-1.67-3.44z" fill="#516980"/><path d="M3.525 11.156a2.513 2.513 0 100-5.026 2.513 2.513 0 000 5.026z" fill="#04CE78"/><path d="M59.868 13.722c0-2.795-.835-5.485-2.416-7.778a.879.879 0 00-1.447.997 11.895 11.895 0 012.105 6.78c0 6.597-5.367 11.964-11.964 11.964-6.596 0-11.964-5.367-11.964-11.963 0-6.597 5.368-11.964 11.964-11.964 2.627 0 5.12.835 7.21 2.415a.879.879 0 101.06-1.402A13.602 13.602 0 0046.145 0c-7.565 0-13.72 6.156-13.72 13.722 0 5.884 3.723 10.914 8.938 12.86v10.486a2.76 2.76 0 00-1.337 2.216l-.743 13.463a6.81 6.81 0 001.87 5.104A6.81 6.81 0 0046.147 60a6.81 6.81 0 004.993-2.15 6.81 6.81 0 001.871-5.103l-.743-13.464a2.76 2.76 0 00-1.336-2.214V26.582c5.214-1.946 8.937-6.976 8.937-12.86zm-10.006 42.92a5.069 5.069 0 01-3.716 1.6c-1.42 0-2.74-.568-3.716-1.6a5.069 5.069 0 01-1.392-3.798l.743-13.464c.03-.532.47-.949 1.003-.949h6.725c.533 0 .974.417 1.003.95l.743 13.463a5.07 5.07 0 01-1.393 3.799zm-.689-19.968H43.12v-9.568a13.714 13.714 0 006.053 0v9.568z" fill="#000"/><path d="M46.146 4.762c-4.94 0-8.959 4.02-8.959 8.96 0 4.94 4.02 8.959 8.96 8.959 4.94 0 8.959-4.02 8.959-8.96 0-4.94-4.02-8.959-8.96-8.959zm0 16.161c-3.97 0-7.201-3.23-7.201-7.201 0-3.971 3.23-7.202 7.201-7.202 3.971 0 7.202 3.23 7.202 7.202 0 3.97-3.23 7.201-7.202 7.201z" fill="#000"/><path d="M46.147 8.63a.879.879 0 100 1.757 3.338 3.338 0 013.334 3.335.879.879 0 101.758 0 5.098 5.098 0 00-5.092-5.092zM24.474 3.965L16.89 3.34c-2.331-.192-4.455 1.467-4.832 3.776l-.324 1.978-4.834-.79a3.398 3.398 0 00-2.827-3.009 3.396 3.396 0 00-3.895 2.8 3.396 3.396 0 003.35 3.94 3.402 3.402 0 003.089-1.996l4.834.79-.323 1.977c-.354 2.16.922 4.267 2.948 4.989L11.527 30a2.76 2.76 0 00-1.283 2.198l-.318 8.805a.879.879 0 101.756.063L12 32.271a1.004 1.004 0 011.002-.941h6.726c.53 0 .969.413 1.002.941l.743 20.556a5.069 5.069 0 01-1.392 3.815 5.07 5.07 0 01-3.716 1.6 5.07 5.07 0 01-3.716-1.6 5.07 5.07 0 01-1.392-3.798v-.017l.276-7.624a.879.879 0 00-1.757-.064l-.275 7.617a6.81 6.81 0 001.871 5.095A6.81 6.81 0 0016.365 60a6.81 6.81 0 004.993-2.15 6.81 6.81 0 001.87-5.094l-.742-20.557v-.017a2.748 2.748 0 00-.444-1.355l2.333-11.172a4.51 4.51 0 001.093-.523 4.533 4.533 0 001.97-3.044L28.566 9.2a4.533 4.533 0 00-.9-3.512 4.533 4.533 0 00-3.19-1.722zM5.137 8.906a1.637 1.637 0 01-1.876 1.35 1.636 1.636 0 01-1.35-1.877 1.637 1.637 0 011.877-1.35c.89.146 1.495.988 1.35 1.877zm8.275 20.666l2.366-11.333 6.116 1.51c.213.052.428.086.643.107l-2.051 9.822a2.759 2.759 0 00-.758-.106h-6.316zM26.83 8.916l-1.126 6.889a2.735 2.735 0 01-1.204 1.86 2.734 2.734 0 01-2.184.377l-7.39-1.824a2.777 2.777 0 01-2.065-3.128l.93-5.69a2.78 2.78 0 012.954-2.308l7.585.625c.778.064 1.47.437 1.95 1.052s.676 1.377.55 2.147z" fill="#000"/></g><defs><clipPath id="clip0_295_5986"><path fill="#fff" d="M0 0h60v60H0z"/></clipPath></defs></svg>