<svg width="24" height="24" fill="none" xmlns="http://www.w3.org/2000/svg"><g clip-path="url(#clip0_1258_1214)" fill-rule="evenodd" clip-rule="evenodd"><path d="M12.584 17.395H3.527a1.665 1.665 0 01-1.661-1.66V1.66c0-.913.747-1.66 1.66-1.66H14.66a1.66 1.66 0 011.655 1.66v8.903a.332.332 0 01-.066.2c-.271.337-.476.614-.642.841-.51.687-.742.997-1.351.997-.216 0-.482-.04-.841-.089-.183-.028-.4-.06-.643-.094.028.25.061.465.089.648.194 1.29.138 1.411-.908 2.192-.15.11-.321.238-.52.388.199.155.37.282.52.393.504.376.77.57.902.869.034.05.05.105.05.166a.321.321 0 01-.32.321z" fill="#000D44"/><path d="M12.207 2.685H5.98a.321.321 0 010-.642h6.228a.321.321 0 010 .642zm1.811 2.109h-9.85a.321.321 0 01-.32-.32.32.32 0 01.32-.316h9.85a.32.32 0 01.321.315.321.321 0 01-.321.321zm0 2.11h-9.85a.317.317 0 01-.32-.316.32.32 0 01.32-.32h9.85a.32.32 0 01.321.32.317.317 0 01-.321.316zm0 2.115h-9.85a.321.321 0 010-.643h9.85a.321.321 0 010 .643zm0 2.109h-9.85a.321.321 0 01-.32-.321c0-.177.144-.316.32-.316h9.85c.177 0 .321.139.321.316a.321.321 0 01-.321.32zm-3.914 2.109H4.169a.317.317 0 01-.321-.315.32.32 0 01.32-.321h5.936a.32.32 0 01.32.32.317.317 0 01-.32.316zm-1.512 2.115H4.17a.321.321 0 010-.642h4.423a.321.321 0 010 .642z" fill="#3B566A"/><path d="M19.914 23.99a.39.39 0 01-.277-.117l-3.477-3.477a.396.396 0 01-.038-.515l.199-.266c.52-.703.758-1.018 1.4-1.018.222 0 .482.033.842.088.177.028.382.056.615.089.088.01.166.05.227.11l2.607 2.608a.397.397 0 01-.32.676l-1.617-.189.221 1.495a.43.43 0 01.017.122.395.395 0 01-.393.393h-.006zm-7.834 0a.399.399 0 01-.387-.455l.232-1.556-1.616.189a.402.402 0 01-.404-.222.406.406 0 01.077-.454l2.608-2.607a.4.4 0 01.227-.111c.238-.033.443-.061.62-.089.36-.055.62-.088.841-.088.643 0 .88.315 1.401 1.018l.194.266a.39.39 0 01-.034.515l-3.476 3.477a.394.394 0 01-.283.116z" fill="#000D44"/><path d="M15.917 15.48h-3.272v-3.35h3.754c.005.116.01.238.01.354v2.503a.494.494 0 01-.492.492z" fill="#FFC39C"/><path d="M16 21.082a.391.391 0 01-.31-.149c-.271-.343-.482-.626-.648-.847-.504-.681-.542-.703-.764-.703-.16 0-.398.033-.725.083a23.8 23.8 0 01-1.058.144.401.401 0 01-.326-.116.38.38 0 01-.11-.322c.049-.437.099-.78.143-1.057.066-.476.11-.764.055-.897s-.287-.304-.675-.592a37.922 37.922 0 01-.847-.648.4.4 0 01-.15-.31.4.4 0 01.15-.31c.343-.271.626-.482.847-.648.387-.288.62-.46.675-.592.056-.133.011-.421-.055-.897a23.13 23.13 0 01-.144-1.057.38.38 0 01.11-.322.401.401 0 01.328-.116c.437.05.78.105 1.057.144.327.05.565.083.725.083.222 0 .26-.022.764-.703.166-.222.377-.504.648-.847a.391.391 0 01.31-.15.4.4 0 01.31.15c.271.343.476.625.642.847.504.68.548.703.77.703.16 0 .398-.033.725-.083.277-.039.62-.094 1.058-.144a.39.39 0 01.32.116.39.39 0 01.117.322c-.05.437-.105.78-.144 1.057-.072.476-.116.764-.061.897.055.133.288.304.675.592.227.166.51.377.853.648.094.077.15.188.15.31a.399.399 0 01-.15.31c-.343.271-.626.482-.853.648-.387.288-.62.46-.675.592-.055.133-.011.42.06.897.04.277.095.62.145 1.057a.401.401 0 01-.116.327.404.404 0 01-.322.11c-.437-.049-.78-.099-1.057-.143a5.62 5.62 0 00-.725-.083c-.222 0-.266.022-.764.703-.172.221-.377.504-.648.847a.4.4 0 01-.31.15z" fill="#04CE78"/><path d="M16 18.475a2.807 2.807 0 110-5.614 2.807 2.807 0 010 5.614z" fill="#F5F5F5"/><path d="M15.574 16.814a.381.381 0 01-.277-.116l-.659-.66a.394.394 0 010-.558.4.4 0 01.56 0l.381.382 1.224-1.224a.394.394 0 01.559.554l-1.506 1.506a.393.393 0 01-.282.116z" fill="#04CE78"/></g><defs><clipPath id="clip0_1258_1214"><path fill="#fff" d="M0 0h24v24H0z"/></clipPath></defs></svg>