<svg width="60" height="60" fill="none" xmlns="http://www.w3.org/2000/svg"><path d="M28.06 44.559c0 .353.352.706.705.706a.696.696 0 00.706-.706.696.696 0 00-.706-.706.696.696 0 00-.706.706zm-3.266-21.706c.795 0 1.5-.706 1.5-1.5s-.705-1.5-1.5-1.5c-.794 0-1.5.706-1.5 1.5s.618 1.5 1.5 1.5zm-9.706 0c.795 0 1.5-.706 1.5-1.5s-.706-1.5-1.5-1.5-1.5.706-1.5 1.5.706 1.5 1.5 1.5zm2.472 5.382c.705.442 1.5.618 2.293.618a4.81 4.81 0 002.383-.618c.44-.264.617-.794.44-1.147-.264-.441-.793-.617-1.146-.441-1.147.53-2.118.618-3 0-.441-.265-.97-.088-1.236.265-.264.53-.088 1.059.265 1.323zm2.381-3.176c.53 0 .883-.441.883-.883v-1.764a.884.884 0 00-.883-.883c-.44 0-.882.442-.882.883v1.765c0 .529.441.882.882.882z" fill="#000D44"/><path d="M54.53 28.235h-2.47v-.706a.884.884 0 00-.883-.882h-9.97a.884.884 0 00-.883.882v.706h-2.47a3.54 3.54 0 00-3.53 3.53v5.47a14.046 14.046 0 00-2.118-1.764c-.441-2.736-1.941-4.765-4.059-5.912 1.236-1.412 2.118-3.088 2.47-5.03 2.207-.352 3.795-2.206 3.795-4.5 0-1.588-.794-3-2.03-3.794V8.382c0-4.588-6.176-6.617-12.352-6.617-6.177 0-12.353 2.03-12.353 6.617v8.03c-1.236.794-2.03 2.206-2.03 3.794 0 2.206 1.589 4.147 3.794 4.5.353 1.853 1.236 3.53 2.383 4.941-1.765 1.235-2.912 3.088-3.265 5.559-3.97 2.117-6.618 6.265-6.618 11.117v7.412c0 2.47 2.03 4.5 4.5 4.5h26.912c.883 0 1.677-.264 2.383-.706.529.442 1.323.618 2.029.618H54.44a3.54 3.54 0 003.53-3.53V31.854a3.434 3.434 0 00-3.441-3.618zm1.764 26.47a1.77 1.77 0 01-1.764 1.766H37.853a1.77 1.77 0 01-1.764-1.765V31.94c0-.97.794-1.764 1.764-1.764h2.47v.529c0 .53.442.882.883.882h9.883c.529 0 .882-.353.882-.882V30h2.47a1.77 1.77 0 011.765 1.765v22.94h.088zm-52.588-8.38c0-3.795 1.853-7.06 4.765-9.089 0 .618.088 1.324.265 2.03-1.942 1.588-2.736 5.647-1.942 10.5.089.44.353.882.706 1.147.265.176.618.264.97.264h.089v.53H3.706v-5.383zm7.235-29.118h18v5.912c-.176 2.294-1.147 4.323-2.647 5.823-1.588 1.588-3.882 2.647-6.353 2.647-2.558 0-4.94-1.147-6.617-2.912-1.324-1.5-2.206-3.352-2.383-5.47v-6zm6.971 15.882c1.235.265 2.559.265 3.706.088v1.06c0 .529.353.882.882.882h1.324l-4.06 4.323-4.058-4.323h1.324c.53 0 .882-.353.882-.883v-1.147zm-7.676 19.5v-.97h.441c.97-.177 1.588-1.147 1.412-2.118-.177-.97-1.148-1.588-2.118-1.412-.706.177-1.235.706-1.324 1.236h-.176c-.441-2.912-.441-8.56 1.941-9.089 1.588-.353 4.147 2.647 5.47 7.5h-.176c-.353-.44-.97-.706-1.676-.53-.97.266-1.589 1.148-1.412 2.119.176.882.97 1.411 1.765 1.411.794 0 1.411-.44 1.676-1.235h.176a1.733 1.733 0 001.148-.794c.264-.441.352-.883.176-1.324-1.412-5.558-4.412-9.176-7.147-8.911-.177-.794-.177-1.589-.177-2.294a12.727 12.727 0 013.265-.971l5.735 6.176a.96.96 0 001.324 0l5.735-6.176c1.589.176 3 .617 4.324 1.412.088 1.323-.088 2.823-.53 4.5a5.21 5.21 0 00-1.235-.177c-2.03 0-3.706 1.677-3.706 3.706 0 2.03 1.677 3.706 3.706 3.706 2.03 0 3.706-1.677 3.706-3.706 0-.97-.353-1.853-.97-2.47.44-1.589.705-3 .794-4.324.794.618 1.411 1.412 2.029 2.206v11.559h-2.823v-.883c0-.53-.354-.882-.883-.882a.884.884 0 00-.882.882v5.736H10.412v-3.883h-.177zm20.47-8.03a1.958 1.958 0 01-1.941 1.942 1.958 1.958 0 01-1.941-1.941c0-1.059.882-1.941 1.94-1.941 1.06 0 1.942.882 1.942 1.94zm-.617-10.146c-2.206-.97-4.148-1.06-6.618-.97v-.618c1.235-.442 2.294-1.06 3.264-1.765 1.589.53 2.736 1.676 3.354 3.353zM16.146 9.088c-.176-.088-.264-.353-.176-.617l.441-.795c.088-.176.353-.264.618-.176l1.676.97V6.619c0-.265.177-.442.441-.442h.883c.264 0 .44.177.44.442V8.47l1.59-.883a.465.465 0 01.617.177l.44.794a.465.465 0 01-.176.617l-1.588.971 1.588.97c.177.089.265.354.177.618l-.441.618c-.088.176-.353.265-.618.176l-1.588-.882V13.5c0 .265-.177.441-.441.441h-.883c-.264 0-.44-.176-.44-.441v-1.941l-1.677.97c-.177.089-.442 0-.618-.176l-.441-.794a.465.465 0 01.176-.618l1.588-.97-1.588-.883zM13.06 30.794a8.294 8.294 0 003.088 1.765v.794c-2.382-.177-3.97.176-5.647.794.441-1.323 1.324-2.559 2.56-3.353z" fill="#000D44"/><path d="M42.088 35.735h8.206c.53 0 .883-.44.883-.882a.884.884 0 00-.883-.882h-8.206a.884.884 0 00-.882.882c0 .441.353.882.882.882zm11.03 2.735H39.177a.884.884 0 00-.883.883c0 .53.353.882.883.882h14.03c.529 0 .882-.353.882-.882-.089-.53-.442-.882-.971-.882zm0 4.5H39.177a.884.884 0 00-.883.883c0 .53.353.882.883.882h14.03c.529 0 .882-.353.882-.882-.089-.53-.442-.882-.971-.882zm-4.235 6.618h-1.589V48a.603.603 0 00-.617-.618h-1.06c-.352 0-.705.265-.705.618v1.588h-1.5c-.353 0-.706.265-.706.618v1.059c0 .353.265.706.706.706H45v1.5c0 .353.265.617.706.617h1.059a.603.603 0 00.617-.617v-1.5h1.589c.353 0 .617-.265.617-.706v-.97c-.088-.442-.352-.707-.706-.707zM38.47 20.912c-.264.97.618 1.853 1.5 1.5l3.442-1.147c1.235.617 2.647.882 4.059.882a9.302 9.302 0 009.353-9.353c0-5.03-4.148-9.176-9.089-9.353-5.382-.176-9.617 4.147-9.617 9.353a9.19 9.19 0 001.411 4.853l-1.058 3.265zm13.412-9.177c.706 0 1.236.53 1.236 1.236s-.53 1.235-1.236 1.235-1.235-.53-1.235-1.235c0-.618.53-1.236 1.235-1.236zm-4.323 0c.706 0 1.235.53 1.235 1.236s-.53 1.235-1.235 1.235c-.706 0-1.235-.53-1.235-1.235 0-.618.529-1.236 1.235-1.236zm-4.324 0c.706 0 1.236.53 1.236 1.236s-.53 1.235-1.236 1.235S42 13.676 42 12.97c0-.618.53-1.236 1.235-1.236z" fill="#000D44"/></svg>