<svg width="60" height="60" fill="none" xmlns="http://www.w3.org/2000/svg"><path d="M33.75 30.938v-5.625h5.625a.938.938 0 00.938-.938V18.75a.938.938 0 00-.938-.938H33.75v-5.625a.938.938 0 00-.938-.937h-5.624a.938.938 0 00-.938.938v5.624h-5.625a.938.938 0 00-.938.938v5.625a.938.938 0 00.938.938h5.625v5.625a.938.938 0 00.938.937h5.625a.938.938 0 00.937-.938zm-1.875-6.563V30h-3.75v-5.625a.938.938 0 00-.938-.938h-5.625v-3.75h5.625a.938.938 0 00.938-.937v-5.625h3.75v5.625a.938.938 0 00.938.938h5.624v3.75h-5.624a.938.938 0 00-.938.937z" fill="#1F5FFF"/><path d="M35.194 49.36c5.643-6.329 14.493-17.841 14.493-27.797a19.688 19.688 0 00-39.374 0c0 9.956 8.85 21.468 14.493 27.796-3.197.788-5.119 2.288-5.119 4.078 0 3.047 5.316 4.688 10.313 4.688 4.997 0 10.313-1.64 10.313-4.688 0-1.79-1.922-3.29-5.12-4.078zM15.937 21.562A14.063 14.063 0 1130 35.624a14.08 14.08 0 01-14.063-14.063zm15 21.562v2.54c.375-.421.76-.843 1.135-1.274l1.425 1.218a92.12 92.12 0 01-2.813 3.132.944.944 0 01-.684.3.959.959 0 01-.684-.3 94.097 94.097 0 01-2.803-3.132l1.424-1.218c.375.43.75.843 1.125 1.265v-2.531h1.875zm-1.875-1.875v-1.875h1.875v1.875h-1.875zm.938 15c-5.147 0-8.438-1.669-8.438-2.813 0-.693 1.482-1.884 4.716-2.465a83.956 83.956 0 003.075 3.15.954.954 0 001.294 0 83.956 83.956 0 003.075-3.15c3.234.581 4.715 1.772 4.715 2.465 0 1.144-3.29 2.813-8.437 2.813z" fill="#1F5FFF"/></svg>