<svg width="60" height="60" fill="none" xmlns="http://www.w3.org/2000/svg"><path d="M52.5 19.714c0 4.267-1.227 8.445-3.534 12.034a30.865 30.865 0 00-4.904 16.694 7.808 7.808 0 01-7.808 7.808h-1.566V45.937a4.688 4.688 0 00-9.376 0V56.25h-1.566a7.808 7.808 0 01-7.808-7.808c0-5.92-1.702-11.715-4.904-16.694A22.258 22.258 0 017.5 19.714C7.5 12.968 12.968 7.5 19.714 7.5c4.084 0 7.897 2.04 10.162 5.438l.124.187.124-.187A12.215 12.215 0 0140.286 7.5c6.746 0 12.214 5.468 12.214 12.214z" fill="#04CE78"/><path d="M7.5 53.438h-.938V52.5a1.876 1.876 0 00-3.75 0v.938h-.937a1.876 1.876 0 000 3.75h.938v.937a1.876 1.876 0 003.75 0v-.938H7.5a1.876 1.876 0 000-3.75zm45-46.875h.938V7.5a1.876 1.876 0 003.75 0v-.938h.937a1.876 1.876 0 000-3.75h-.938v-.937a1.876 1.876 0 00-3.75 0v.938H52.5a1.876 1.876 0 000 3.75z" fill="#fff"/><path d="M30 22.47c1.824 0 3.65-.347 5.383-1.042a1.875 1.875 0 10-1.392-3.481 10.705 10.705 0 01-7.982 0 1.876 1.876 0 00-1.394 3.481A14.484 14.484 0 0030 22.47z" fill="#F5F8FD"/><path d="M54.588 17.897l-.355-.082c-.933-6.87-6.823-12.19-13.946-12.19A14.057 14.057 0 0030 10.085a14.06 14.06 0 00-17.194-2.637 7.46 7.46 0 01-2.493-5.573 1.876 1.876 0 00-3.75 0c0 2.987 1.18 5.782 3.219 7.858a14.042 14.042 0 00-4.157 9.98c0 3.477.772 6.982 2.232 10.137a1.876 1.876 0 003.403-1.575 20.514 20.514 0 01-1.885-8.561c0-5.701 4.638-10.339 10.339-10.339 3.464 0 6.68 1.721 8.601 4.603l.124.187a1.875 1.875 0 003.122-.001l.124-.186a10.318 10.318 0 018.602-4.604c5.7.001 10.338 4.639 10.338 10.34 0 3.06-.708 6.108-2.038 8.863l-37.19 5.512a6.717 6.717 0 00-5.772 6.683 6.765 6.765 0 005.785 6.693l2.638.385c.004.197.014.394.014.592 0 5.339 4.345 9.683 9.684 9.683h1.567c1.035 0 1.875-.84 1.875-1.875v-6.485l5.625.822v5.663c0 1.035.84 1.875 1.874 1.875h1.567c3.937 0 7.327-2.365 8.839-5.747l.64.093c2.79.407 4.892 2.837 4.892 5.654a1.876 1.876 0 003.75 0c0-4.666-3.483-8.692-8.103-9.365l-.349-.05c.003-.09.014-.178.014-.268 0-3.524.634-6.981 1.883-10.277a1.875 1.875 0 10-3.506-1.329 32.623 32.623 0 00-2.127 11.606 5.941 5.941 0 01-5.624 5.925v-8.43A6.57 6.57 0 0030 39.376a6.57 6.57 0 00-6.563 6.563v8.43a5.941 5.941 0 01-5.625-5.926c0-.768-.035-1.531-.089-2.292 0-.032-.004-.065-.007-.098a32.497 32.497 0 00-1.888-8.83l38.246-5.669a6.923 6.923 0 004.224-2.326A6.901 6.901 0 0060 24.684a6.921 6.921 0 00-5.412-6.787zM30 43.125a2.816 2.816 0 012.813 2.813v.86l-5.626-.822v-.038A2.816 2.816 0 0130 43.124zm-16.279.887l-1.765-.258a3.003 3.003 0 01-1.843-1.008 3.037 3.037 0 01-.738-1.974 2.991 2.991 0 012.572-2.974l.078-.011a28.82 28.82 0 011.696 6.225zm41.74-17.235a3.181 3.181 0 01-1.944 1.07l-.595.088c.723-2 1.18-4.093 1.357-6.213a3.187 3.187 0 011.971 2.962c0 .767-.275 1.504-.79 2.093z" fill="#F5F8FD"/></svg>