<svg width="60" height="60" fill="none" xmlns="http://www.w3.org/2000/svg"><g clip-path="url(#clip0_1507_1495)" fill-rule="evenodd" clip-rule="evenodd"><path d="M30 41.484c-1.523 0-3.164 0-4.57-.117-.586 3.164.351 13.36-.703 15-.704 1.29-1.641 1.875-2.696 1.875-2.578 0-4.922-3.75-6.797-7.031-2.46-4.219-3.515-9.023-3.75-12.188C-2.46 35.04-4.453 26.484 9.375 21.563c-1.055-2.11-1.875-4.336-1.758-8.438 0-5.04 1.992-8.437 6.446-10.547 3.398-1.758 6.796-.351 9.843.82 5.04 1.875 6.914 1.875 11.485.118 1.289-.586 2.695-1.055 4.336-1.407 11.367-2.343 14.882 9.727 11.015 18.985 0 .117-.117.351-.117.468 12.305 4.454 12.656 12.188.234 16.758-.82.235-1.64.586-2.578.82-.82 7.032-3.75 14.297-7.383 17.579-2.46 2.343-5.39 1.758-6.093-1.875-.586-3.164.703-7.852-.235-13.477-1.523.117-3.047.117-4.57.117zm-6.211-.234c-3.867-.352-7.5-.938-10.664-1.758.351 2.93 1.406 7.149 3.633 10.899.82 1.523 3.398 6.21 5.273 6.21.117 0 .703 0 1.29-.937.585-1.055 0-11.602.468-14.414zM11.133 21.445c.234.117 1.64 2.813 1.758 3.047 1.054 1.875.82 4.102.468 6.914-.234 1.758-.468 3.985-.351 6.446a56.884 56.884 0 0011.133 1.757c2.109-7.617 9.375-8.672 11.718 0 3.867-.234 7.617-.937 10.899-1.757.234-1.993.234-3.868 0-5.508-1.172-9.258-.235-5.508 2.578-11.953 3.281-7.97.469-18.75-9.258-16.641-5.156 1.055-6.797 3.633-13.242 2.344-3.164-.586-7.852-4.102-12.07-2.11-3.868 1.993-5.508 4.688-5.508 9.141-.117 4.102.703 6.094 1.875 8.32zm-.938 1.64c-12.187 4.22-10.898 10.43 1.172 14.298-.117-2.344.117-4.453.352-6.211.586-4.688.351-4.805-1.524-8.086zm15.586 16.642a98.49 98.49 0 008.32 0c-1.874-7.032-6.68-5.157-8.32 0zm22.735-2.344c4.804-1.524 9.843-4.219 9.843-7.383 0-2.578-3.047-5.04-8.437-6.914-2.11 3.984-2.461 1.406-1.524 9.023.235 1.641.235 3.399.118 5.274zm-1.875 2.226c-3.164.82-6.797 1.29-10.43 1.641.352 2.11.469 5.273.234 7.969-.117 1.64-.703 6.562 1.055 7.148.586.235 1.523-.117 2.344-.82 3.281-2.93 5.86-9.61 6.797-15.938zm-3.985-15.468c-.586 0-1.054-.586-.703-1.172.586-1.29 2.344-3.399 2.578-4.57 1.172-2.696 1.524-7.5-.468-9.258-.352-.118-.82-.82-3.047-.352-1.29.234-4.22 1.64-4.688 1.758-3.75 1.172-7.031 1.406-10.781.586-1.64-.235-7.149-3.047-8.438-2.461-2.109 1.055-2.695 1.992-2.695 4.57 0 4.336 1.406 5.625 3.164 8.906.469.938-.937 1.641-1.406.704-1.875-3.399-3.399-4.805-3.399-9.61 0-3.164.938-4.687 3.633-5.976 1.407-.703 3.399 0 4.336.351 1.758.703 3.399 1.406 5.274 1.875 3.28.82 6.328.586 9.843-.586 1.29-.468 3.633-1.64 4.922-1.758 1.875-.351 3.282-.117 4.336.704 2.813 2.46 2.227 8.085.938 11.132-.82 1.993-1.758 3.047-2.696 4.688-.117.351-.351.469-.703.469z" fill="#F5F8FD"/><path d="M24.141 39.61c2.11-7.618 9.375-8.672 11.719 0 3.867-.235 7.617-.938 10.898-1.758.235-1.993.235-3.868 0-5.508-1.172-9.258-.234-5.508 2.578-11.953 3.282-7.97.47-18.75-9.258-16.641-5.156 1.055-6.796 3.633-13.242 2.344-3.164-.586-7.851-4.102-12.07-2.11-3.867 1.993-5.508 4.688-5.508 9.141-.117 4.102.703 6.094 1.875 8.32.235.117 1.64 2.813 1.758 3.047 1.055 1.875.82 4.102.469 6.914-.235 1.758-.469 3.985-.352 6.446a56.886 56.886 0 0011.133 1.757zm18.516-15.47c-.586 0-1.055-.585-.703-1.171.585-1.29 2.343-3.399 2.578-4.57 1.172-2.696 1.523-7.5-.47-9.258-.35-.118-.82-.82-3.046-.352-1.289.234-4.219 1.64-4.688 1.758-3.75 1.172-7.03 1.406-10.78.586-1.641-.235-7.15-3.047-8.438-2.461-2.11 1.055-2.695 1.992-2.695 4.57 0 4.336 1.406 5.625 3.163 8.906.47.938-.937 1.641-1.406.704-1.875-3.399-3.398-4.805-3.398-9.61 0-3.164.937-4.687 3.633-5.976 1.406-.704 3.398 0 4.336.351 1.757.703 3.398 1.406 5.273 1.875 3.281.82 6.328.586 9.844-.586 1.289-.469 3.633-1.64 4.922-1.758 1.875-.351 3.28-.117 4.336.704 2.812 2.46 2.226 8.085.937 11.132-.82 1.993-1.758 3.047-2.695 4.688-.117.351-.352.469-.703.469zm3.983 15.47c-3.163.82-6.796 1.288-10.43 1.64.352 2.11.47 5.273.235 7.969-.117 1.64-.703 6.562 1.055 7.148.586.235 1.523-.117 2.344-.82 3.281-2.93 5.86-9.61 6.797-15.938zM23.32 55.664c.586-1.055 0-11.602.47-14.414-3.868-.352-7.5-.938-10.665-1.758.352 2.93 1.406 7.149 3.633 10.899.82 1.523 3.398 6.21 5.273 6.21.117 0 .703 0 1.29-.937z" fill="#04CE78"/><path d="M48.398 32.11c.234 1.64.234 3.398.117 5.273C53.32 35.859 58.36 33.164 58.36 30c0-2.578-3.047-5.04-8.438-6.914-2.109 3.984-2.46 1.406-1.523 9.023zm-36.679-.938c.586-4.688.351-4.805-1.524-8.086-12.187 4.219-10.898 10.43 1.172 14.297-.117-2.344.117-4.453.352-6.211zm22.383 8.555c-1.875-7.032-6.68-5.157-8.32 0 2.695.117 5.624.117 8.32 0z" fill="#1F5FFF"/></g><defs><clipPath id="clip0_1507_1495"><path fill="#fff" d="M0 0h60v60H0z"/></clipPath></defs></svg>