<svg width="56" height="39" fill="none" xmlns="http://www.w3.org/2000/svg"><path d="M16.448 38.712a13.461 13.461 0 01-7.962-.838 13.67 13.67 0 010-25.3L36.51 1.052a13.671 13.671 0 0117.86 17.913 13.357 13.357 0 01-7.438 7.386L18.91 37.927a19.99 19.99 0 01-2.462.785zM39.495 2.047c-.729.161-1.446.371-2.147.629L9.324 14.251a11.628 11.628 0 00-6.285 15.19 11.314 11.314 0 006.285 6.234 11.524 11.524 0 008.853 0L46.2 24.099a11.576 11.576 0 00-6.757-21.79l.052-.263z" fill="#0071BC"/><path d="M25.248 9.014L37.295 4.09a10.895 10.895 0 0114.196 5.866 10.948 10.948 0 01-5.92 14.248l-12.047 4.924-8.276-20.114zM5.817 29.547A2.043 2.043 0 013.46 28.29a9.795 9.795 0 015.238-12.781l12.728-5.238a2.102 2.102 0 011.624 3.876l-12.728 5.238a5.605 5.605 0 00-3.038 7.333 2.147 2.147 0 01-1.153 2.724l-.314.105z" fill="#0071BC"/></svg>