<svg width="29" height="24" fill="none" xmlns="http://www.w3.org/2000/svg"><path d="M18.293 13.482h-2.341v2.341a.556.556 0 01-.558.569h-1.727a.569.569 0 01-.569-.569v-2.34h-2.33a.558.558 0 01-.568-.558v-1.761a.569.569 0 01.568-.569h2.33v-2.33a.569.569 0 01.569-.568h1.727a.557.557 0 01.558.568v2.33h2.34a.569.569 0 01.57.569v1.727a.557.557 0 01-.57.591z" fill="#008CB4"/><path d="M22.751 23.426H6.31a5.575 5.575 0 01-5.63-5.574V6.426A5.64 5.64 0 016.31.786h16.44a5.641 5.641 0 015.574 5.64v11.348a5.572 5.572 0 01-5.574 5.652zm-8.227-18.06a6.688 6.688 0 106.689 6.69 6.69 6.69 0 00-6.689-6.711v.022z" fill="#008CB4"/></svg>