<svg width="85" height="68" fill="none" xmlns="http://www.w3.org/2000/svg"><path d="M27.607 61.225a8.504 8.504 0 11-16.27-4.952 8.504 8.504 0 0116.27 4.952z" fill="#29ABE2"/><path d="M23.708 55.802a2.418 2.418 0 01-1.248-.351 2.262 2.262 0 01-.663-3.16l7.294-11.194a2.313 2.313 0 013.198-.702 2.315 2.315 0 01.702 3.198l-7.294 11.195a2.263 2.263 0 01-1.99 1.014zm7.305-19.142a2.222 2.222 0 01-1.677-.741L10.34 15.206a2.34 2.34 0 010-3.237 2.301 2.301 0 013.237 0L32.534 32.68a2.301 2.301 0 010 3.238 2.34 2.34 0 01-1.521.74z" fill="#fff"/><path d="M42.936 40.161a8.503 8.503 0 11-16.27-4.951 8.503 8.503 0 0116.27 4.951z" fill="#29ABE2"/><path d="M72.466 51.395c-.22.04-.444.04-.663 0L37.516 41.019a2.302 2.302 0 011.326-4.368L73.13 47.026a2.3 2.3 0 01-.663 4.486v-.117z" fill="#fff"/><path d="M84.01 52.604a12.092 12.092 0 11-23.152-6.99 12.092 12.092 0 0123.152 6.99zM23.668 15.586A12.092 12.092 0 1115.633.53a12.054 12.054 0 018.035 15.056z" fill="#29ABE2"/></svg>