<svg width="70" height="70" fill="none" xmlns="http://www.w3.org/2000/svg"><g clip-path="url(#clip0_239_1090)"><path d="M52.683 20.254l.002 3.991a1.37 1.37 0 01-1.367 1.37l-4.377.002a1.368 1.368 0 01-1.369-1.367l-.002-3.997 7.113.001z" fill="#BCF1F8"/><path d="M52.685 24.246c0 .754-.612 1.368-1.368 1.368h-4.101c.756 0 1.367-.614 1.367-1.368l-.001-2.733 4.101-.003.002 2.736z" fill="#A0F0F2"/><path d="M62.89 61.455V38.601a5.532 5.532 0 00-8.19-4.852l-3.038 1.663a5.534 5.534 0 01-2.658.68h-.117a5.535 5.535 0 01-2.658-.68L43.19 33.75A5.535 5.535 0 0035 38.6v22.854h27.89z" fill="#FCF1F2"/><path d="M62.89 38.601v22.854h-4.1V38.601a5.531 5.531 0 00-3.437-5.12c-.015-.005-.029-.012-.044-.018a5.54 5.54 0 014.145.018 5.53 5.53 0 013.438 5.12z" fill="#F4E5E0"/><path d="M35 60.088V38.6a5.532 5.532 0 00-8.19-4.852l-3.039 1.663a5.534 5.534 0 01-2.657.68h-.118a5.534 5.534 0 01-2.658-.68L15.3 33.75a5.535 5.535 0 00-8.19 4.85v21.487H35z" fill="#FCF1F2"/><path d="M35 38.601v21.487h-4.102V38.6a5.53 5.53 0 00-3.437-5.12c-.015-.005-.028-.012-.043-.018a5.541 5.541 0 014.145.018A5.53 5.53 0 0135 38.601z" fill="#F4E5E0"/><path d="M61.471 34.902l-1.874 3.769a7.42 7.42 0 01-14.064-3.303v-.338l.696.382c.815.447 1.73.68 2.657.68h.118c.928 0 1.843-.233 2.658-.68l3.038-1.663a5.537 5.537 0 016.771 1.153z" fill="#E6D6D1"/><path d="M61.471 34.902l-1.874 3.769c-.228.46-.5.887-.808 1.28V38.6a5.531 5.531 0 00-3.437-5.12c-.015-.005-.029-.012-.044-.018a5.54 5.54 0 016.163 1.438z" fill="#D3C6C3"/><path d="M41.367 39.596a5.504 5.504 0 01-3.466 5.114L35 45.866v-7.265c0-1.124.34-2.19.94-3.083a5.524 5.524 0 013.018-2.22l1.873 3.93c.353.74.536 1.55.536 2.368z" fill="#E6D6D1"/><path d="M66.24 68.291H3.76a2.734 2.734 0 01-2.735-2.734V51.885A2.734 2.734 0 013.76 49.15h3.35l1.37 3.399a5.469 5.469 0 005.078 3.437h15.005a5.469 5.469 0 005.078-3.437L35 49.15l1.36 3.399a5.469 5.469 0 005.077 3.437h15.017a5.469 5.469 0 005.077-3.437l1.36-3.399h3.35a2.734 2.734 0 012.734 2.735v13.672a2.734 2.734 0 01-2.735 2.734z" fill="#FF8D95"/><path d="M68.975 51.885v13.672a2.734 2.734 0 01-2.735 2.734h-4.1a2.734 2.734 0 002.734-2.734V51.885a2.734 2.734 0 00-2.02-2.64l.038-.095h3.35a2.734 2.734 0 012.734 2.735z" fill="#FF738A"/><path d="M44.144 8.547L30.76 7.144a10.936 10.936 0 01-5.891-2.496l-3.127-2.62a1.367 1.367 0 00-.878-.319H8.767c-.639 0-.929.797-.44 1.207l11 9.218a20.505 20.505 0 0011.997 4.756l12.92.74-.1-9.083z" fill="#BCF1F8"/><path d="M36.977 17.214l-1.858-.106-3.796-.218a20.504 20.504 0 01-11.997-4.756l-2.454-2.056-.399-.335L18.14 7.75a1.369 1.369 0 011.926-.17l1.492 1.251a16.395 16.395 0 009.585 3.8l4.502.258a1.368 1.368 0 011.29 1.34l.042 2.984z" fill="#00DDF9"/><path d="M43.509 5.65l.009 14.498c0 .755.613 1.367 1.368 1.367l8.48-.005a1.37 1.37 0 001.368-1.37l-.01-14.498c0-.755-.612-1.367-1.368-1.366l-8.48.005c-.756 0-1.368.613-1.367 1.368z" fill="#736572"/><path d="M54.734 20.141a1.37 1.37 0 01-1.367 1.369h-.684l-4.102.003v-.003h.684a1.37 1.37 0 001.367-1.369l-.01-14.499c0-.727-.567-1.32-1.283-1.364l4.017-.003c.756 0 1.368.611 1.368 1.367l.01 14.5z" fill="#615260"/><path d="M66.24 48.126h-2.324V38.6a6.535 6.535 0 00-4.074-6.069 6.533 6.533 0 00-5.634.318l-3.038 1.663a4.709 4.709 0 01-4.449 0l-3.038-1.663a6.53 6.53 0 00-5.635-.317A6.546 6.546 0 0035 35.073a6.546 6.546 0 00-3.048-2.54 6.534 6.534 0 00-5.635.317l-3.038 1.663a4.709 4.709 0 01-4.448 0l-3.038-1.663a6.53 6.53 0 00-5.635-.317A6.534 6.534 0 006.084 38.6v9.525H3.76A3.764 3.764 0 000 51.886v13.671a3.764 3.764 0 003.76 3.76h3.35a1.025 1.025 0 100-2.05H3.76a1.71 1.71 0 01-1.71-1.71V51.885a1.71 1.71 0 011.71-1.709h2.657l1.111 2.754a6.463 6.463 0 006.03 4.082h15.005a6.463 6.463 0 006.03-4.082L35 51.912l.407 1.018a6.463 6.463 0 006.03 4.082h15.017a6.463 6.463 0 006.03-4.082l1.101-2.754h2.655a1.71 1.71 0 011.71 1.71v13.671a1.71 1.71 0 01-1.71 1.71H11.895a1.025 1.025 0 100 2.05H66.24a3.764 3.764 0 003.76-3.76V51.885a3.764 3.764 0 00-3.76-3.76zM48.887 37.118h.117a6.576 6.576 0 003.15-.806l3.038-1.664a4.49 4.49 0 013.873-.218c.425.174.812.407 1.154.686l-1.54 3.098a6.42 6.42 0 01-6.902 3.44 6.398 6.398 0 01-5.07-4.913 6.566 6.566 0 002.18.377zm-10.44-2.51l1.458 3.062a4.51 4.51 0 01.436 1.927 4.458 4.458 0 01-2.82 4.161l-1.496.597v-5.753c0-1.697.939-3.221 2.421-3.993zm-5.758 17.56a4.422 4.422 0 01-4.126 2.794H13.558a4.424 4.424 0 01-4.127-2.796l-1.296-3.214v-10.35a4.49 4.49 0 012.8-4.171 4.49 4.49 0 013.873.218l3.038 1.663c1.957 1.08 4.46 1.08 6.418 0l3.038-1.663a4.49 4.49 0 013.873-.218c1.7.696 2.8 2.333 2.8 4.17v10.353l-1.286 3.215zm27.89 0a4.422 4.422 0 01-4.125 2.794H41.437a4.422 4.422 0 01-4.126-2.794l-1.286-3.214v-2.392l2.256-.9a6.498 6.498 0 004.111-6.065 6.57 6.57 0 00-.635-2.81l-1.284-2.693a4.496 4.496 0 012.225.554l1.815.994a8.448 8.448 0 008.425 8.17c3.158 0 6.137-1.787 7.577-4.685L61.572 37c.19.502.293 1.042.293 1.601v10.353l-1.286 3.215zM37.96 27.73a1.026 1.026 0 00-1.406 1.494l1.148 1.08a1.025 1.025 0 001.406-1.493l-1.148-1.08zm6.263 1.696c.38-.42.349-1.068-.071-1.449l-3.637-3.294a1.025 1.025 0 10-1.377 1.52l3.637 3.294c.356.32 1.073.307 1.448-.071z" fill="#000D44"/><path d="M7.669 3.703l10.999 9.217c3.527 2.957 8 4.73 12.597 4.994l11.226.645.001 1.59a2.395 2.395 0 002.053 2.364l.002 1.738a2.396 2.396 0 002.393 2.392h.001l1.163-.001.004 5.217a1.025 1.025 0 102.05-.001l-.003-5.217 1.163-.001c.64 0 1.24-.25 1.692-.702.452-.453.7-1.053.7-1.693l-.001-1.737c.51-.073.98-.304 1.35-.675.452-.452.7-1.053.7-1.693l-.008-7.273c0-.566-.46-1.024-1.025-1.024h-.002c-.566 0-1.024.46-1.024 1.026l.008 7.273c-.035.236-.106.308-.342.343l-8.48.005a.343.343 0 01-.343-.342l-.009-14.499c0-.189.154-.342.342-.342l8.48-.006c.237.035.308.106.343.342l.001 2.44a1.025 1.025 0 002.05 0v-2.44c0-.64-.25-1.24-.702-1.693a2.377 2.377 0 00-1.691-.7h-.002l-8.48.006a2.396 2.396 0 00-2.392 2.395l.001 1.685-11.62-1.212a9.873 9.873 0 01-5.338-2.261L22.4 1.243a2.395 2.395 0 00-1.537-.559H8.768C7.217.626 6.444 2.752 7.669 3.703zm43.648 20.886l-4.377.003a.343.343 0 01-.342-.342l-.001-1.71 5.061-.003.001 1.71c0 .224-.134.345-.342.342zM19.985 11.35l-2.068-1.734 1.01-1.205c.178-.158.277-.167.48-.042l1.493 1.25a17.52 17.52 0 0010.184 4.037l4.503.259c.177.01.319.157.322.335l.034 1.88-4.56-.262a19.605 19.605 0 01-11.398-4.519zm.878-8.614c.08 0 .158.028.219.08l3.127 2.62a11.918 11.918 0 006.444 2.729l11.833 1.234.004 7.107-4.494-.258-.037-2.036a2.403 2.403 0 00-2.255-2.344l-4.502-.259a15.458 15.458 0 01-8.985-3.562l-1.492-1.25a2.379 2.379 0 00-1.747-.55 2.376 2.376 0 00-1.623.847l-1.01 1.205-6.638-5.563h11.155zM58.739 30.26a1.025 1.025 0 001.45.044l1.147-1.08a1.026 1.026 0 00-1.405-1.493l-1.148 1.08a1.026 1.026 0 00-.044 1.45zm-5.072-.834c.381.42 1.03.45 1.449.071l3.636-3.295a1.025 1.025 0 10-1.377-1.52l-3.636 3.295a1.025 1.025 0 00-.072 1.449z" fill="#000D44"/></g><defs><clipPath id="clip0_239_1090"><path fill="#fff" d="M0 0h70v70H0z"/></clipPath></defs></svg>