<svg width="40" height="40" fill="none" xmlns="http://www.w3.org/2000/svg"><g clip-path="url(#clip0_1304_1472)"><path d="M.253 18.561a.39.39 0 00-.228.503l3.256 8.673c.01.023.021.045.034.066.305.67 1.922 1.206 4.006 1.344v.276h.664v3.287l-4.567 1.405v.576a.884.884 0 10.783 0l3.784-1.164v1.164a.884.884 0 10.78 0v-1.164l3.785 1.164a.884.884 0 10.782 0v-.576L8.765 32.71v-3.287h.664v-.276c1.338-.088 2.484-.341 3.213-.688.316.378.475.846.475 1.393l-.053 2.803.122.043c.047.017.635.218 1.713.315l.143 1.78a1.952 1.952 0 103.89-.31l-.131-1.644c.272-.044.55-.092.84-.151l.16-.033-.761-7.262c-.296-2.103-1.315-3.31-2.796-3.31h-4.295c.073-1.433.342-2.912.598-4.192l4.105 1.244a1.685 1.685 0 001.819-.577l4.119-5.282.82-.256a1.688 1.688 0 001.063-2.235l2.42-.4c.09.067.255.097.435.067.257-.043.448-.19.425-.327-.023-.139-.25-.216-.508-.173-.18.03-.326.11-.39.204l-2.488.411a1.676 1.676 0 00-1.961-.766l-1.324.412c-.33.103-.615.3-.828.573l-1.203 1.543-.593-5.58a.655.655 0 00-.794-.57l-.3.112-.016-.03c-.382.095-2.624.69-4.541 2.062a.234.234 0 00.097.197c.484.348.969.649 1.454.9l.716 2.601a3.564 3.564 0 01-1.672.024c-.137-.152-.661-1.119-.337-2.58l.078.052.086-.13a4.08 4.08 0 01-.124-.084c.018-.07.038-.14.06-.211a13.28 13.28 0 01-.7-.512c-.588.461-1.131 1-1.56 1.628.096.228.267.414.482.53.416.562.972.966 1.587 1.196l.049.097c.152.281.238.302.275.31.287.07.586.105.886.105.355 0 .7-.05 1.031-.14.213.175.992.744 2.17.744.384 0 .811-.062 1.274-.217l-2.136 2.739-3.592-1.088a3.87 3.87 0 00-.446-1.276c-.382-.663-.934-1.101-1.597-1.266a3.304 3.304 0 00-.799-.096c-1.349 0-3.212.837-4.023 3.195-1.102 3.268-1.325 5.443-.916 8.95l.007.05c.277 1.425.957 2.391 2.016 2.883-1.326.037-2.538.137-3.25.3l-1.75-4.661c.746 1.164 1.515 1.825 2.033 1.63.831-.312-2.763-9.886-3.595-9.574-.678.255-.716 1.894-.17 3.923a.387.387 0 00-.188.02zM15 10.872l.004-.01-.01-.032a.12.12 0 00-.006-.002l-.14-.511.003-.009-.026-.094-.006-.003-.18-.65.008.003-.502-1.824 3.578-1.334a.42.42 0 01.33.07.42.42 0 01.172.297l.61 5.746a4.042 4.042 0 01-1.207.292c-1.294.099-2.114-.552-2.28-.699l-.044-.159-.006.002L15 10.872zM5.506 23.95c-.4-3.447-.182-5.584.9-8.793.75-2.179 2.452-2.952 3.683-2.952.246 0 .486.029.712.085.566.141 1.04.52 1.373 1.098.17.293.292.626.37.978l-1.523-.461a1.687 1.687 0 00-2.103 1.125c-.27.89.235 1.833 1.125 2.102l2.158.654c-.266 1.332-.548 2.884-.614 4.39l-1.791 1.5.23.276 1.8-1.51h4.418c1.283 0 2.172 1.095 2.44 2.995l.62 5.921c-.038.01-2.061.487-4.65.253l-.032.358c.53.048 1.034.067 1.502.067 1.725 0 2.964-.26 3.218-.318l.068.65c-3.357.651-5.468.172-5.982.029l.048-2.542c0-.727-.244-1.336-.725-1.808-1.1-1.078-3.058-1.094-3.442-1.087-.288 0-.544-.013-.794-.042a2.278 2.278 0 01-.565-.1c-1.316-.327-2.137-1.285-2.44-2.846l-.004-.022zm13.341-10.775c.282.37 1.08 1.318 2.068 1.665l-.156.199c-1.038-.411-1.881-1.485-2.041-1.698l.13-.166zm1.69-2.168c.167-.213.394-.37.652-.451l1.324-.412a1.327 1.327 0 11.79 2.533l-.928.29-1.225 1.571c-1.016-.293-1.877-1.392-2.074-1.657l1.462-1.874zm-4.776 4.71l-.031.008.348 1.276.347-.095-.294-1.078.334.102.412 1.534.347-.093-.422-1.573 1.688-2.165c.26.338 1.045 1.266 2.04 1.699l-2.343 3.005a1.327 1.327 0 01-1.43.454l-6.61-2.002a1.327 1.327 0 11.77-2.54l4.844 1.467z" fill="#1F5FFF"/><path d="M11.049 8.381c-1.022.417-1.302-1.038-.2-1.031-1.102-.007-.805-1.458.212-1.03-1.017-.428-.186-1.655.59-.87-.776-.785.46-1.6.877-.579-.417-1.021 1.038-1.302 1.031-.199.007-1.103 1.458-.805 1.03.212.428-1.017 1.655-.187.87.589.63-.623 1.28.053.982.558.26-.082.473-.142.623-.18a.988.988 0 00.002-.188 1.102 1.102 0 00-.825-.963l-.015-.06a1.094 1.094 0 00-1.21-.769 1.087 1.087 0 00-.667-.431 1.087 1.087 0 00-.784.133 1.094 1.094 0 00-1.452.28 1.101 1.101 0 00-1.235.815 1.093 1.093 0 00-.828 1.223c-.228.165-.38.411-.433.67-.056.273-.008.55.135.785a1.091 1.091 0 00.279 1.45 1.104 1.104 0 00.514 1.11 6.92 6.92 0 01.337-.446c-.383-.18-.503-.806.167-1.079z" fill="#04CE78"/><path d="M17.362 10.749a7.152 7.152 0 01-.349-.044c-.37.504-.859.891-1.417 1.134l.063.227c.018.016.043.035.07.056a3.792 3.792 0 001.633-1.373z" fill="#1F5FFF"/><path d="M17.814 10.159a.234.234 0 00-.216-.251l-.109-.01a3.51 3.51 0 00-.07-2.679 1.066 1.066 0 00.078-.447L14.51 7.886l.507 1.845a7.93 7.93 0 002.565.645l.012-.003a.233.233 0 00.221-.214z" fill="#04CE78"/><path d="M16.057 10.619l-.037.151.153.037.035-.152a8.29 8.29 0 01-.15-.036zm.424.252c.052.01.104.02.156.028l.026-.154a8.037 8.037 0 01-.153-.027l-.029.153zm-1.243-.334l.027.01.05-.149a9.047 9.047 0 01-.127-.045l.05.184zm.372-.043l-.046.15.151.045.043-.15-.148-.045zm-1.787-.577l.14.073.07-.139a11.632 11.632 0 01-.137-.072l-.073.138zm-.198-.288a8.527 8.527 0 01-.134-.078l-.08.134.136.08.078-.136zm.62.501l.142.066.065-.142a9.845 9.845 0 01-.14-.066l-.067.141zm1.211.845l-.106-.031.048.177.014.004.044-.15zm.26.233l.153.039.037-.152-.15-.038-.04.151zm.459.109l.154.031.03-.153a11.92 11.92 0 01-.151-.031l-.033.153zm-1.6-.64l-.144-.057-.058.145.146.058.056-.146zm-1.257-.598a6.21 6.21 0 01-.133-.079l-.081.134.136.08.078-.135zm.765.562l.064-.143a8.862 8.862 0 01-.141-.064l-.066.142.143.065zm-.427-.202l.07-.14a8.507 8.507 0 01-.137-.07l-.073.138.14.072zM5.813 23.348l.358-.03c-.603-7.399 2.248-10 2.277-10.026l-.236-.27c-.124.108-3.018 2.725-2.399 10.326z" fill="#1F5FFF"/><path d="M32.653 11.582a3.513 3.513 0 102.433-6.592 3.513 3.513 0 00-2.433 6.592zm-.821-3.191c.457-.16 1.018.256 1.252.928.235.672.054 1.347-.403 1.506-.457.16-1.017-.256-1.252-.928-.235-.672-.054-1.347.403-1.506z" fill="#04CE78"/><path d="M33.954 13.925a1.607 1.607 0 011.515 2.347l-2.808 5.406a1.62 1.62 0 01-.945.793c-.534.168-1.055.346-1.547.526v.031h-5.375a1.952 1.952 0 00-1.945 1.786l-.822 9.613a1.952 1.952 0 103.89.332l.602-7.051h.012c.04.152.147.298.312.434.61.507 2.01.892 3.728 1.005v.276h.664v3.287l-4.567 1.405v.575a.884.884 0 10.782.002l3.785-1.165v1.163a.884.884 0 10.78 0v-1.163l3.785 1.164a.884.884 0 10.782 0v-.576l-4.567-1.405v-3.287h.664v-.276c2.084-.137 3.7-.674 4.006-1.344a.39.39 0 00.034-.066l3.256-8.673a.39.39 0 00-.416-.522c.546-2.03.508-3.668-.17-3.923-.413-.155-1.508 2.13-2.404 4.507.14-.87.225-1.792.273-2.843.1-2.501-1.453-3.866-2.83-3.996-1.376-.13-2.61 1.488-2.76 3.159-.093.53-.188 1.117-.296 1.735l1.242-2.392a1.617 1.617 0 011.34-.864zm1.84 10.268c.518.194 1.287-.466 2.034-1.63l-1.75 4.661c-.782-.179-2.163-.282-3.637-.31.23-.028.446-.096.643-.197.631-.225 1.256-.723 1.824-1.663.305-.6.572-1.159.805-1.695-.072.474-.057.782.081.834z" fill="#1F5FFF"/><path d="M24.644 22.676c.05-.003.1-.007.15-.007h5.229a34.681 34.681 0 011.585-.54c.317-.1.581-.322.734-.617l2.808-5.406a1.25 1.25 0 00-2.217-1.151l-2.572 4.953a41.23 41.23 0 00-2.582.956c-1.441.596-2.536 1.156-3.135 1.812z" fill="#04CE78"/></g><defs><clipPath id="clip0_1304_1472"><path fill="#fff" d="M0 0h40v40H0z"/></clipPath></defs></svg>