<svg width="70" height="70" fill="none" xmlns="http://www.w3.org/2000/svg"><path d="M35 8.75L3.281 6.562v8.75L35 13.126h2.188V8.75H35z" fill="#99A2A7"/><path d="M29.538 53.594H9.85c-3.202-4.307-5.616-8.345-5.469-12.032a8.39 8.39 0 011.017-3.577 6.553 6.553 0 018.982-2.656l2.127 1.182a6.563 6.563 0 006.374 0l2.126-1.182a6.55 6.55 0 018.983 2.656 8.388 8.388 0 011.016 3.578c.148 3.686-2.266 7.724-5.468 12.03z" fill="#E8EDF1"/><path d="M60.156 53.594H40.47c-3.202-4.307-5.617-8.345-5.469-12.032a8.39 8.39 0 011.017-3.577A6.553 6.553 0 0145 35.329l2.126 1.182a6.563 6.563 0 006.374 0l2.127-1.182a6.55 6.55 0 018.982 2.656 8.39 8.39 0 011.017 3.578c.148 3.686-2.267 7.724-5.469 12.03z" fill="#E8EDF1"/><path d="M7.656 53.594h54.688a4.375 4.375 0 014.375 4.375v8.75H3.28v-8.75a4.375 4.375 0 014.375-4.375z" fill="#04CE78"/><path d="M65.625 31.719a8.688 8.688 0 00-4.375 7.656 8.687 8.687 0 00-4.375-7.656 8.689 8.689 0 004.375-7.657 8.687 8.687 0 004.375 7.657zm-52.5 18.594a8.688 8.688 0 00-4.375 7.656 8.688 8.688 0 00-4.375-7.657 8.688 8.688 0 004.375-7.656 8.688 8.688 0 004.375 7.657z" fill="#A4D4F4"/><path d="M41.563 3.281a6.562 6.562 0 016.562 6.563v6.562H35V9.844a6.563 6.563 0 016.563-6.563z" fill="#B5B8B9"/><path d="M39.375 16.406h4.375v4.375h-4.375v-4.375z" fill="#99A2A7"/><path d="M39.375 20.781h4.375a2.187 2.187 0 012.188 2.188v6.562h-8.75V22.97a2.188 2.188 0 012.187-2.188z" fill="#E8EDF1"/><path d="M37.188 25.156h8.75v4.375h-8.75v-4.375z" fill="#D9DBDD"/><path d="M17.5 7.543v6.79l-14.219.98v-8.75l14.219.98z" fill="#B5B8B9"/><path d="M2.535 5.763a1.094 1.094 0 00-.348.8v8.75a1.094 1.094 0 001.17 1.09l30.55-2.106v2.11A1.094 1.094 0 0035 17.5h3.281v2.376a3.287 3.287 0 00-2.187 3.093v6.562a1.094 1.094 0 001.093 1.094h8.75a1.094 1.094 0 001.094-1.094V22.97a3.286 3.286 0 00-2.187-3.093V17.5h3.281a1.094 1.094 0 001.094-1.094V9.844a7.656 7.656 0 00-14.977-2.242L3.356 5.472a1.089 1.089 0 00-.821.29zm36.84 16.112h4.375a1.094 1.094 0 011.094 1.094v1.094H38.28v-1.094a1.095 1.095 0 011.094-1.094zm-1.094 6.563V26.25h6.563v2.188H38.28zm4.375-8.75H40.47V17.5h2.187v2.188zm-6.562-9.844a5.469 5.469 0 1110.937 0v5.469H36.094v-5.47zm-2.188 0v2.26L18.594 13.16V8.715L33.908 9.77l-.002.073zM4.375 7.734l12.031.83v4.747l-12.031.83V7.734z" fill="#000D44"/><path d="M62.344 52.5h-.046c2.516-3.589 4.566-7.338 4.42-10.981a9.497 9.497 0 00-1.141-4.042 7.579 7.579 0 00-1.984-2.403 7.39 7.39 0 012.525-2.379 1.095 1.095 0 000-1.952c-.153-.08-3.774-1.989-3.774-6.68a1.094 1.094 0 00-2.188 0c0 4.691-3.62 6.6-3.77 6.678a1.097 1.097 0 00-.005 1.954c.415.228.803.503 1.156.818a7.662 7.662 0 00-2.442.86l-2.127 1.182a5.437 5.437 0 01-5.311 0l-2.127-1.182a7.644 7.644 0 00-10.482 3.104l-.045.09-.045-.09a7.646 7.646 0 00-10.482-3.104l-2.126 1.182a5.437 5.437 0 01-5.312 0l-2.127-1.182A7.644 7.644 0 004.43 37.477a9.497 9.497 0 00-1.141 4.042c-.082 2.049.536 4.307 1.882 6.882a6.51 6.51 0 01-1.285.934 1.096 1.096 0 00-.005 1.954 7.086 7.086 0 011.889 1.547 5.478 5.478 0 00-3.582 5.133v8.75a1.094 1.094 0 001.093 1.094H66.72a1.093 1.093 0 001.094-1.094v-8.75a5.474 5.474 0 00-5.47-5.469zM61.25 28.697a9.884 9.884 0 002.45 3.022 9.883 9.883 0 00-2.45 3.021 9.883 9.883 0 00-2.45-3.021 9.884 9.884 0 002.45-3.022zm-25.157 12.91a7.338 7.338 0 01.892-3.113 5.377 5.377 0 013.25-2.67 5.445 5.445 0 014.233.461l2.126 1.182a7.61 7.61 0 007.437 0l2.126-1.182a5.43 5.43 0 013.072-.675 7.735 7.735 0 01.927 3.765 1.094 1.094 0 002.188 0 8.14 8.14 0 01.299-2.22c.4.392.736.843.998 1.339.525.958.83 2.021.892 3.112.078 1.957-.458 4.783-4.93 10.894H41.022c-2.568-3.498-5.065-7.47-4.928-10.894zM38.327 52.5H31.68c1.319-1.881 2.51-3.807 3.323-5.739.813 1.932 2.004 3.858 3.324 5.739zM5.474 41.606a7.335 7.335 0 01.892-3.112 5.377 5.377 0 013.25-2.67 5.447 5.447 0 014.234.461l2.126 1.182a7.61 7.61 0 007.436 0l2.127-1.182a5.439 5.439 0 014.233-.461 5.377 5.377 0 013.25 2.67c.526.958.83 2.021.892 3.112.078 1.957-.458 4.783-4.93 10.894H12.043a6.842 6.842 0 011.575-1.211 1.095 1.095 0 000-1.952c-.153-.08-3.774-1.989-3.774-6.68a1.094 1.094 0 00-2.188 0 7.723 7.723 0 01-.979 3.86c-.864-1.855-1.26-3.473-1.203-4.91zm3.276 5.685a9.884 9.884 0 002.45 3.022 9.884 9.884 0 00-2.45 3.021 9.883 9.883 0 00-2.45-3.022 9.883 9.883 0 002.45-3.021zm56.875 18.334H4.375v-7.656A3.287 3.287 0 017 54.754a7.856 7.856 0 01.656 3.215 1.094 1.094 0 002.188 0 7.847 7.847 0 01.685-3.282h51.815a3.285 3.285 0 013.281 3.282v7.656z" fill="#000D44"/><path d="M41.563 47.031a1.095 1.095 0 00.875-1.75c-.958-1.275-1.363-2.42-1.208-3.4a2.552 2.552 0 01.95-1.603l-.003.002a1.094 1.094 0 00-1.221-1.815l-.002.001-.007.005a4.71 4.71 0 00-1.868 3.008c-.275 1.604.266 3.325 1.609 5.115a1.09 1.09 0 00.875.437z" fill="#000D44"/></svg>