<svg width="60" height="61" fill="none" xmlns="http://www.w3.org/2000/svg"><g clip-path="url(#clip0_1517_1953)"><path d="M52.27 39.807c-.847.426-1.76.763-2.73.993a81.024 81.024 0 01-4.693.978 84.045 84.045 0 01-13.475 1.306 84.78 84.78 0 01-8.793-.315A84.367 84.367 0 0110.464 40.8a12.398 12.398 0 01-2.73-.994C3.496 37.677.881 33.31.881 28.678c0-1.643.328-3.32 1.03-4.94a12.702 12.702 0 014.682-5.578 12.799 12.799 0 016.193-2.079c1.234-.08 2.497.017 3.755.31a58.677 58.677 0 005.729 1.045 59.098 59.098 0 0018.966-.57 55.512 55.512 0 002.227-.474 12.814 12.814 0 015.506-.074 12.809 12.809 0 016.391 3.42 12.704 12.704 0 012.733 4c2.68 6.195-.083 13.184-5.823 16.068z" fill="#04CE78"/><path d="M49.25 36.842l-8.311 3.445H19.584l-8.594-3.58c4.579-2.56 11.312-4.188 18.829-4.213l.183-.001c7.721 0 14.63 1.69 19.248 4.349z" fill="#1F5FFF"/><path d="M25.4 40.287h-5.816l-8.594-3.58c4.579-2.56 11.312-4.188 18.829-4.213-5.666.107-8.246 5.146-4.418 7.793z" fill="#1F5FFF"/><path d="M37.425 40.484v2.285c-2.47.218-4.947.327-7.423.327v-2.612a2.505 2.505 0 012.505-2.505h2.412a2.505 2.505 0 012.506 2.505z" fill="#ECF4FF"/><path d="M30.002 40.484v2.612c-2.478 0-4.954-.109-7.423-.327v-2.285a2.505 2.505 0 012.507-2.505h2.41a2.505 2.505 0 012.506 2.505z" fill="#ECF4FF"/><path d="M33.879 37.979a2.506 2.506 0 00-2.507 2.505v2.6c-.457.009-.913.012-1.37.012v-2.612a2.506 2.506 0 012.505-2.505h1.372zm-7.423 0a2.506 2.506 0 00-2.507 2.505v2.395c-.457-.032-.913-.07-1.37-.11v-2.285a2.506 2.506 0 012.507-2.505h1.37z" fill="#DDEAFB"/><path d="M44.847 39.312v2.466c-2.462.44-4.938.771-7.422.991v-3.457a2.505 2.505 0 012.505-2.505h2.412a2.505 2.505 0 012.505 2.505z" fill="#ECF4FF"/><path d="M41.301 36.807a2.506 2.506 0 00-2.506 2.505v3.324c-.457.049-.913.092-1.37.133v-3.457a2.506 2.506 0 012.505-2.505h1.371z" fill="#DDEAFB"/><path d="M52.27 38.14v1.667c-.847.426-1.76.763-2.73.993a82.926 82.926 0 01-4.692.978V38.14a2.505 2.505 0 012.505-2.505h2.412a2.506 2.506 0 012.505 2.505z" fill="#ECF4FF"/><path d="M48.724 35.635a2.506 2.506 0 00-2.506 2.505v3.381c-.456.09-.913.175-1.37.257V38.14a2.506 2.506 0 012.505-2.505h1.371z" fill="#DDEAFB"/><path d="M22.58 39.312v3.457c-2.484-.22-4.96-.55-7.423-.991v-2.466a2.505 2.505 0 012.507-2.505h2.41a2.505 2.505 0 012.506 2.505z" fill="#ECF4FF"/><path d="M19.034 36.807a2.505 2.505 0 00-2.506 2.505v2.7a88.502 88.502 0 01-1.37-.234v-2.466a2.506 2.506 0 012.506-2.505h1.37z" fill="#DDEAFB"/><path d="M15.157 38.14v3.638a82.948 82.948 0 01-4.692-.977 12.53 12.53 0 01-2.73-.995V38.14a2.506 2.506 0 012.506-2.505h2.41a2.505 2.505 0 012.506 2.505z" fill="#ECF4FF"/><path d="M11.61 35.635a2.505 2.505 0 00-2.505 2.505v2.255a12.327 12.327 0 01-1.37-.59V38.14a2.506 2.506 0 012.506-2.505h1.37z" fill="#DDEAFB"/><path d="M48.968 16.319v7.125a3.201 3.201 0 01-3.201 3.201h-3.081a3.201 3.201 0 01-3.202-3.201v-6.265a58.677 58.677 0 003.979-.786 12.726 12.726 0 015.506-.074z" fill="#ECF4FF"/><path d="M39.485 17.179v9.195a3.201 3.201 0 01-3.2 3.201h-3.081a3.201 3.201 0 01-3.202-3.201v-8.43c3.171 0 6.343-.254 9.483-.765z" fill="#ECF4FF"/><path d="M30.002 17.944v8.43a3.201 3.201 0 01-3.201 3.201h-3.08a3.201 3.201 0 01-3.201-3.201v-9.195c3.139.51 6.311.765 9.482.765z" fill="#ECF4FF"/><path d="M20.52 17.179v6.265a3.201 3.201 0 01-3.202 3.201h-3.081a3.202 3.202 0 01-3.202-3.201v-7.125a12.773 12.773 0 015.506.074 58.97 58.97 0 003.978.786z" fill="#ECF4FF"/><path d="M44.437 26.645h-1.751a3.202 3.202 0 01-3.202-3.201v-6.265a55.795 55.795 0 001.751-.312v6.577a3.201 3.201 0 003.202 3.201zm-9.483 2.93h-1.75a3.202 3.202 0 01-3.202-3.201v-8.43c.584 0 1.167-.008 1.75-.025v8.454a3.201 3.201 0 003.202 3.202zm-9.482 0h-1.75a3.202 3.202 0 01-3.203-3.201v-9.195c.583.095 1.167.18 1.751.258v8.936a3.201 3.201 0 003.202 3.202zm-9.484-2.93h-1.751a3.202 3.202 0 01-3.202-3.201v-7.125c.574-.12 1.16-.2 1.75-.237v7.362a3.201 3.201 0 003.203 3.201z" fill="#DDEAFB"/><path d="M55.36 19.74v1.366c0 .882-.357 1.682-.936 2.26a3.196 3.196 0 01-5.455-2.26v-4.787a12.783 12.783 0 016.391 3.42z" fill="#ECF4FF"/><path d="M53.14 24.15a3.196 3.196 0 01-4.17-3.043v-4.788a12.82 12.82 0 011.948.568v4.219c0 1.425.932 2.633 2.221 3.043z" fill="#DDEAFB"/><path d="M11.035 16.319v4.787c0 .882-.357 1.682-.936 2.26a3.196 3.196 0 01-5.455-2.26V19.74a12.783 12.783 0 016.391-3.421z" fill="#ECF4FF"/><path d="M8.814 24.15a3.196 3.196 0 01-4.17-3.043V19.74a12.678 12.678 0 011.948-1.579v2.945c0 1.425.933 2.633 2.222 3.043z" fill="#DDEAFB"/><path d="M26.124 25.557h-1.726c-.6 0-1.085-.486-1.085-1.085v-1.727c0-.599.485-1.085 1.085-1.085h1.726c.6 0 1.085.486 1.085 1.085v1.727c0 .6-.485 1.085-1.085 1.085zm-9.484-2.651h-1.726a1.085 1.085 0 01-1.085-1.085v-1.727c0-.599.486-1.085 1.085-1.085h1.727c.6 0 1.085.486 1.085 1.085v1.727c0 .6-.486 1.085-1.085 1.085zm17.24 2.651h1.727c.599 0 1.085-.486 1.085-1.085v-1.727c0-.599-.486-1.085-1.085-1.085H33.88c-.6 0-1.085.486-1.085 1.085v1.727c0 .6.486 1.085 1.085 1.085zm9.484-2.651h1.726c.6 0 1.085-.486 1.085-1.085v-1.727c0-.599-.486-1.085-1.085-1.085h-1.727c-.599 0-1.085.486-1.085 1.085v1.727c0 .6.486 1.085 1.086 1.085zM30.166 8.96h-.329c-1.161 0-2.124-.9-2.203-2.058l-.245-3.563a2.209 2.209 0 012.204-2.36h.818a2.209 2.209 0 012.204 2.36l-.245 3.563a2.209 2.209 0 01-2.203 2.058zm-10.591 2.75l-.285.165a2.209 2.209 0 01-2.938-.68L14.36 8.23a2.209 2.209 0 01.728-3.146l.709-.41a2.209 2.209 0 013.088.943l1.57 3.208a2.209 2.209 0 01-.88 2.884zm21.139.165l-.285-.165a2.209 2.209 0 01-.88-2.884l1.57-3.208a2.209 2.209 0 013.089-.942l.708.409a2.209 2.209 0 01.729 3.146l-1.994 2.963a2.209 2.209 0 01-2.937.68zM29.837 51.24h.33c1.16 0 2.124.9 2.203 2.058l.245 3.563a2.209 2.209 0 01-2.204 2.36h-.818a2.209 2.209 0 01-2.204-2.36l.245-3.563a2.209 2.209 0 012.203-2.058zm10.592-2.75l.285-.165a2.209 2.209 0 012.937.68l1.994 2.964a2.209 2.209 0 01-.729 3.146l-.708.41a2.209 2.209 0 01-3.088-.943l-1.57-3.208a2.209 2.209 0 01.879-2.884zm-21.139-.165l.285.165a2.21 2.21 0 01.88 2.884l-1.57 3.208a2.209 2.209 0 01-3.09.942l-.708-.409a2.209 2.209 0 01-.728-3.146l1.993-2.964a2.209 2.209 0 012.937-.68z" fill="#1F5FFF"/><path d="M58.9 23.39a13.536 13.536 0 00-2.922-4.276 13.561 13.561 0 00-4.748-3.048 13.738 13.738 0 00-2.083-.608 13.698 13.698 0 00-5.885.079c-.723.17-1.46.326-2.195.467a58.23 58.23 0 01-24.326-.468 13.667 13.667 0 00-10.631 1.89 13.584 13.584 0 00-4.144 4.297.879.879 0 101.504.91c.126-.208.26-.413.399-.614a4.08 4.08 0 003.97 3.162 4.05 4.05 0 002.427-.8 4.087 4.087 0 003.97 3.143h3.081c.872 0 1.68-.275 2.343-.743a4.086 4.086 0 004.06 3.673h3.08a4.074 4.074 0 003.202-1.555 4.074 4.074 0 003.201 1.555h3.08a4.086 4.086 0 004.06-3.673 4.056 4.056 0 002.343.743h3.08a4.087 4.087 0 003.972-3.146 4.053 4.053 0 002.426.802c1.09 0 2.113-.424 2.88-1.192a4.04 4.04 0 001.09-1.966c.45.645.835 1.334 1.152 2.066a11.582 11.582 0 01-4.138 14.188v-.136a3.389 3.389 0 00-3.385-3.384h-2.41c-.1 0-.199.005-.297.014-2.223-.959-4.733-1.717-7.468-2.254a.879.879 0 10-.338 1.726c2.03.398 3.925.921 5.658 1.561a3.404 3.404 0 00-.562.785 3.368 3.368 0 00-2.006-.66h-2.41a3.387 3.387 0 00-3.006 1.832 3.368 3.368 0 00-2.006-.66h-2.41c-.993 0-1.887.429-2.506 1.111a3.376 3.376 0 00-2.506-1.111h-2.41c-.75 0-1.444.245-2.006.66a3.387 3.387 0 00-3.006-1.832h-2.41c-.751 0-1.445.246-2.007.66a3.397 3.397 0 00-.562-.785c4.264-1.574 9.48-2.431 14.907-2.431 1.99 0 3.964.115 5.868.34a.879.879 0 10.207-1.745 51.742 51.742 0 00-6.075-.353c-6.295 0-12.34 1.12-17.057 3.156a3.403 3.403 0 00-.294-.014h-2.41a3.389 3.389 0 00-3.386 3.384v.13C3.72 36.142 1.76 32.52 1.76 28.68c0-1.03.14-2.054.414-3.047a.879.879 0 10-1.694-.47 13.17 13.17 0 00-.478 3.517c0 4.997 2.88 9.673 7.336 11.911a13.288 13.288 0 002.922 1.065 84.052 84.052 0 006.127 1.225 85.566 85.566 0 007.5.876 86.094 86.094 0 007.499.207 84.839 84.839 0 0018.357-2.308 13.38 13.38 0 002.921-1.063c6.3-3.166 9.04-10.721 6.235-17.202zm-6.852-5.022c-.598.506-1.375.866-2.2 1.122v-2.038a11.802 11.802 0 012.2.916zM41.4 17.73a56.939 56.939 0 002.262-.482c1.453-.34 2.96-.403 4.427-.191v2.83c-.36.056-.71.098-1.04.13a1.965 1.965 0 00-1.96-1.887h-1.727a1.966 1.966 0 00-1.964 1.964v1.24c-.305.111-.65.229-1.035.346v-3.758a57.84 57.84 0 001.037-.192zm3.895 2.364v1.727a.207.207 0 01-.206.206h-1.727a.206.206 0 01-.206-.206v-1.727c0-.114.092-.206.206-.206h1.727c.113 0 .206.092.206.206zm-13.518-1.297a60.095 60.095 0 006.828-.594v3.94c-.34.075-.697.148-1.074.216a1.967 1.967 0 00-1.926-1.578H33.88a1.966 1.966 0 00-1.963 1.948H30.88v-3.912c.303-.005.603-.011.897-.02zm4.035 3.948v1.727a.206.206 0 01-.207.206H33.88a.207.207 0 01-.206-.206v-1.727c0-.114.092-.206.206-.206h1.726c.114 0 .207.092.207.206zm-6.69-3.93v3.914h-1.036a1.966 1.966 0 00-1.963-1.948h-1.727c-.95 0-1.745.68-1.925 1.578a25.697 25.697 0 01-1.074-.217v-3.94a60.139 60.139 0 007.725.613zm-2.793 3.93v1.727a.206.206 0 01-.206.206h-1.727a.207.207 0 01-.206-.206v-1.727c0-.114.092-.206.206-.206h1.727c.113 0 .206.092.206.206zM12.843 16.96c1.171-.077 2.348.02 3.497.29 1.09.254 2.197.478 3.3.671v3.76c-.386-.117-.73-.235-1.036-.346v-1.24a1.966 1.966 0 00-1.964-1.964h-1.726c-1.057 0-1.92.84-1.96 1.886a17.22 17.22 0 01-1.04-.13v-2.829c.309-.044.619-.078.93-.098zm4.003 3.135v1.727a.207.207 0 01-.206.206h-1.726a.207.207 0 01-.207-.206v-1.727c0-.114.093-.206.207-.206h1.726c.114 0 .206.092.206.206zm-6.69-.604c-.824-.255-1.601-.615-2.198-1.12.701-.38 1.435-.689 2.198-.92v2.04zm-2.317 3.933a2.32 2.32 0 01-2.317-2.317v-.987c.292-.271.597-.528.913-.768.957.98 2.297 1.591 3.71 1.964a2.295 2.295 0 01-.669 1.43 2.296 2.296 0 01-1.637.678zm9.478 2.344h-3.08a2.325 2.325 0 01-2.323-2.323v-1.778c.35.049.697.087 1.036.116v.039c0 1.083.88 1.964 1.964 1.964h1.726c.62 0 1.172-.29 1.533-.739.47.168.958.323 1.464.466a2.324 2.324 0 01-2.32 2.255zm9.483 2.93h-3.08a2.325 2.325 0 01-2.322-2.323V23.94c.34.07.683.137 1.035.197v.335c0 1.083.881 1.964 1.964 1.964h1.727a1.966 1.966 0 001.963-1.95h1.036v1.887a2.325 2.325 0 01-2.323 2.323zm9.483 0h-3.08a2.325 2.325 0 01-2.322-2.323v-1.887h1.036a1.966 1.966 0 001.963 1.949h1.726a1.966 1.966 0 001.965-1.964v-.335c.351-.06.695-.126 1.035-.197v2.434a2.325 2.325 0 01-2.323 2.322zm9.484-2.93h-3.08a2.324 2.324 0 01-2.32-2.255 22.85 22.85 0 001.464-.466c.36.45.913.739 1.532.739h1.727a1.966 1.966 0 001.964-1.964v-.04a18.53 18.53 0 001.036-.115v1.778a2.325 2.325 0 01-2.323 2.323zm8.034-3.023a2.298 2.298 0 01-1.637.679c-1.207 0-2.2-.928-2.306-2.108 1.415-.373 2.756-.984 3.713-1.966.315.239.618.495.91.766v.99c0 .62-.24 1.202-.68 1.64zM9.403 39.568a11.505 11.505 0 01-.79-.32V38.14c0-.897.73-1.626 1.627-1.626h2.41c.898 0 1.627.73 1.627 1.626v2.58a82.222 82.222 0 01-3.61-.775 11.67 11.67 0 01-1.264-.377zm6.632 1.47v-1.726c0-.897.73-1.627 1.628-1.627h2.41c.897 0 1.627.73 1.627 1.627v2.491a83.566 83.566 0 01-5.665-.764zm7.423.923v-1.477c0-.897.73-1.627 1.628-1.627h2.41c.897 0 1.627.73 1.627 1.627v1.728a84.522 84.522 0 01-5.665-.251zm7.898.245c-.157.002-.315.005-.475.006v-1.728c0-.897.73-1.627 1.626-1.627h2.41c.898 0 1.628.73 1.628 1.627v1.476a82.98 82.98 0 01-5.19.245zm7.344-.444c-.128.014-.26.027-.397.04v-2.49c0-.897.73-1.627 1.627-1.627h2.41c.898 0 1.628.73 1.628 1.627v1.727a83.932 83.932 0 01-5.268.723zm10.635-1.816a80.524 80.524 0 01-3.61.775V38.14c0-.897.73-1.626 1.627-1.626h2.411c.898 0 1.628.73 1.628 1.626v1.11a11.71 11.71 0 01-2.056.696zM26.756 6.962a3.097 3.097 0 003.08 2.877h.33a3.097 3.097 0 003.08-2.877l.245-3.563a3.098 3.098 0 00-.824-2.319A3.099 3.099 0 0030.41.1h-.817c-.853 0-1.675.357-2.257.98a3.099 3.099 0 00-.824 2.319l.244 3.563zM28.62 2.28c.255-.272.6-.422.972-.422h.818c.373 0 .718.15.973.422.254.272.38.627.354.999l-.244 3.563a1.334 1.334 0 01-1.327 1.24h-.33a1.334 1.334 0 01-1.326-1.24l-.245-3.563a1.32 1.32 0 01.355-.999zm-12.997 9.405a3.094 3.094 0 004.106.95l.285-.164a3.097 3.097 0 001.23-4.031l-1.57-3.209A3.098 3.098 0 0017.8 3.635a3.097 3.097 0 00-2.445.28l-.708.409A3.098 3.098 0 0013.184 6.3c-.193.83-.03 1.713.446 2.42l1.993 2.964zm-.727-4.987c.084-.363.308-.666.63-.852l.71-.409a1.319 1.319 0 011.052-.12c.356.108.643.353.807.687l1.57 3.208a1.334 1.334 0 01-.53 1.737l-.285.164a1.334 1.334 0 01-1.769-.41L15.088 7.74a1.318 1.318 0 01-.192-1.042zm25.094 5.773l.284.165a3.094 3.094 0 004.106-.95l1.994-2.965c.476-.707.638-1.59.446-2.42a3.099 3.099 0 00-1.464-1.977l-.709-.41a3.097 3.097 0 00-2.444-.279 3.098 3.098 0 00-1.873 1.597L38.76 8.44a3.096 3.096 0 001.23 4.031zm.349-3.258l1.57-3.209c.163-.334.45-.579.806-.687.357-.109.73-.066 1.053.12l.709.41c.322.185.546.488.63.85.084.364.016.734-.192 1.043l-1.993 2.964a1.334 1.334 0 01-1.769.41l-.285-.165a1.334 1.334 0 01-.53-1.736zm-7.092 44.024a3.097 3.097 0 00-3.08-2.876h-.33a3.097 3.097 0 00-3.08 2.876l-.245 3.564c-.058.85.242 1.696.824 2.319s1.404.98 2.257.98h.817c.853 0 1.676-.357 2.257-.98a3.098 3.098 0 00.824-2.319l-.244-3.564zm-1.864 4.683a1.32 1.32 0 01-.972.422h-.818c-.373 0-.718-.15-.972-.422a1.316 1.316 0 01-.355-.999l.244-3.563a1.334 1.334 0 011.327-1.24h.33c.696 0 1.278.545 1.326 1.24l.245 3.563a1.32 1.32 0 01-.355.999zm12.997-9.405a3.097 3.097 0 00-4.106-.95l-.285.164a3.097 3.097 0 00-1.23 4.031l1.57 3.209a3.08 3.08 0 002.77 1.73c.54 0 1.075-.14 1.548-.414l.709-.409A3.098 3.098 0 0046.82 53.9c.192-.83.03-1.713-.446-2.42l-1.994-2.964zm.727 4.987a1.316 1.316 0 01-.63.852l-.709.409a1.316 1.316 0 01-1.053.12 1.317 1.317 0 01-.806-.687l-1.57-3.209a1.334 1.334 0 01.53-1.736l.284-.164a1.332 1.332 0 011.769.41l1.993 2.963c.208.309.276.68.192 1.042zm-25.093-5.773l-.285-.165a3.097 3.097 0 00-4.106.951l-1.993 2.964a3.098 3.098 0 00-.447 2.42c.193.83.726 1.55 1.465 1.977l.708.41a3.095 3.095 0 002.445.279 3.098 3.098 0 001.873-1.597l1.57-3.208a3.096 3.096 0 00-1.23-4.031zm-.349 3.258l-1.57 3.209c-.164.334-.45.579-.807.687-.356.109-.73.066-1.053-.12l-.708-.41a1.318 1.318 0 01-.63-.851 1.317 1.317 0 01.191-1.042l1.994-2.964a1.332 1.332 0 011.768-.41l.285.165c.603.348.836 1.11.53 1.736z" fill="#000D44"/></g><defs><clipPath id="clip0_1517_1953"><path fill="#fff" transform="translate(0 .1)" d="M0 0h60v60H0z"/></clipPath></defs></svg>