<svg width="60" height="61" fill="none" xmlns="http://www.w3.org/2000/svg"><path d="M33.492 42.024a1.694 1.694 0 01-1.695-1.695v-5.805a1.875 1.875 0 00-3.75 0v5.805a1.697 1.697 0 01-1.695 1.695 1.694 1.694 0 01-1.558-1.027l-1.317-3.074a28.688 28.688 0 01-1.636-5.076l-.163-.734a21.622 21.622 0 01.182-10.134 2.89 2.89 0 015.173-.914 3.51 3.51 0 005.777 0 2.89 2.89 0 015.174.914 21.62 21.62 0 01.182 10.134l-.163.734a28.666 28.666 0 01-1.636 5.076l-1.318 3.074a1.695 1.695 0 01-1.557 1.027z" fill="#DBDBDB"/><path d="M37.066 32.955l.163-.734a21.621 21.621 0 00-.182-10.134 2.887 2.887 0 00-2.273-2.112 2.874 2.874 0 00-1.963 1.197 3.475 3.475 0 01-3.358 1.461 3.474 3.474 0 01-3.357-1.46 2.874 2.874 0 00-1.963-1.198 2.888 2.888 0 00-2.273 2.111 21.622 21.622 0 00-.182 10.134l.163.735a28.686 28.686 0 001.636 5.075l1.317 3.074a1.692 1.692 0 001.08.956 1.69 1.69 0 001.236-1.624v-5.804a1.852 1.852 0 012.343-1.809 1.853 1.853 0 012.344 1.809v5.805a1.69 1.69 0 001.236 1.624 1.692 1.692 0 001.08-.956l1.317-3.074a28.68 28.68 0 001.636-5.076z" fill="#EBEBEB"/><path d="M31.874 27.287a.933.933 0 01-.418-.1 3.27 3.27 0 00-2.912 0 .938.938 0 01-.838-1.677 5.158 5.158 0 014.588 0 .938.938 0 01-.42 1.777zm14.958 14.757a1.695 1.695 0 01-1.11-2.125l1.739-5.538a1.875 1.875 0 00-3.578-1.123l-1.738 5.538a1.695 1.695 0 01-3.304-.337l-.336-3.327a28.684 28.684 0 01-.041-5.333l.064-.75a21.622 21.622 0 013.208-9.614 2.89 2.89 0 015.21.677 3.51 3.51 0 005.513 1.73 2.89 2.89 0 014.662 2.422 21.617 21.617 0 01-2.861 9.723l-.375.652a28.742 28.742 0 01-3.08 4.353l-2.178 2.538a1.695 1.695 0 01-1.795.514z" fill="#DBDBDB"/><path d="M55.127 21.375l-.026-.011a2.889 2.889 0 00-2.642.478 3.506 3.506 0 01-4.245.053 3.476 3.476 0 01-2.146-2.252 2.87 2.87 0 00-1.035-1.437 2.888 2.888 0 00-3.297 1.23 21.622 21.622 0 00-3.208 9.614l-.064.75a28.674 28.674 0 00.04 5.332l.337 3.328c.044.388.222.748.503 1.02a1.69 1.69 0 001.922-1.152l1.738-5.54a1.876 1.876 0 012.35-1.226c.274.087.523.237.729.437.05.012.1.015.15.031a1.875 1.875 0 011.228 2.35l-1.738 5.54a1.688 1.688 0 00.407 1.683 1.684 1.684 0 001.617-.541l2.178-2.539a28.688 28.688 0 003.08-4.353l.376-.651a21.622 21.622 0 002.861-9.724 2.886 2.886 0 00-1.115-2.42z" fill="#EFEFEF"/><path d="M49.583 26.518a5.16 5.16 0 01-3.572-1.437.938.938 0 111.302-1.35 3.269 3.269 0 002.777.872.938.938 0 01.299 1.852 5.086 5.086 0 01-.806.064zM16 42.122a1.695 1.695 0 01-1.694-1.695v-5.805a1.875 1.875 0 00-3.75 0v5.805a1.695 1.695 0 01-3.253.668L5.986 38.02a28.675 28.675 0 01-1.636-5.076l-.163-.734a21.62 21.62 0 01.181-10.134 2.89 2.89 0 015.174-.915 3.51 3.51 0 005.778 0 2.89 2.89 0 015.174.915 21.62 21.62 0 01.181 10.134l-.163.734a28.679 28.679 0 01-1.636 5.076l-1.317 3.074a1.694 1.694 0 01-1.558 1.027z" fill="#DBDBDB"/><path d="M19.575 32.945l.163-.734c.743-3.345.68-6.818-.182-10.134a2.887 2.887 0 00-2.273-2.112 2.873 2.873 0 00-1.964 1.197 3.474 3.474 0 01-3.357 1.462 3.476 3.476 0 01-3.357-1.462 2.872 2.872 0 00-1.963-1.197 2.888 2.888 0 00-2.274 2.112 21.621 21.621 0 00-.181 10.134l.163.734c.386 1.74.934 3.438 1.636 5.076l1.317 3.073a1.693 1.693 0 001.08.957 1.69 1.69 0 001.236-1.624v-5.805a1.852 1.852 0 012.343-1.809 1.851 1.851 0 012.344 1.809v5.805a1.69 1.69 0 001.236 1.624 1.693 1.693 0 001.08-.957l1.317-3.073a28.688 28.688 0 001.636-5.076z" fill="#EBEBEB"/><path d="M14.305 27.73a.932.932 0 01-.419-.1 3.27 3.27 0 00-2.911 0 .937.937 0 11-.838-1.677 5.16 5.16 0 014.588 0 .938.938 0 01-.42 1.776z" fill="#DBDBDB"/><path d="M57.188 47.912H2.812v-15l20.24-2.792a58.119 58.119 0 0113.924-.237l20.212 2.091v15.938z" fill="#04CE78"/><path d="M38.449 30.036a28.668 28.668 0 00.055 5.096l.337 3.327a1.694 1.694 0 003.303.337l1.739-5.538a1.875 1.875 0 113.578 1.122l-1.739 5.54a1.695 1.695 0 002.904 1.61l2.177-2.538a28.683 28.683 0 003.08-4.353l.376-.652a21.61 21.61 0 001.104-2.202l-16.914-1.75z" fill="#DC989B"/><path d="M39 39.002c.035.067.073.132.116.194.067.101.143.196.229.283a1.69 1.69 0 001.922-1.151l1.738-5.54a1.876 1.876 0 012.35-1.227c.274.088.523.238.728.438.05.012.101.015.151.031a1.875 1.875 0 011.227 2.35l-1.738 5.54a1.653 1.653 0 00-.07.419c-.002.034 0 .067 0 .1 0 .122.014.243.04.361l.01.042c.074.286.221.549.428.761a1.682 1.682 0 001.617-.541l2.177-2.539a28.677 28.677 0 003.08-4.353l.377-.651a21.63 21.63 0 00.936-1.842L38.45 30.036a29.223 29.223 0 00-.085 2.544c0 .044.003.089.004.133a26.688 26.688 0 00.137 2.419l.336 3.327c.017.137.051.27.101.399.019.048.035.098.058.144z" fill="#1F5FFF"/><path d="M36.976 29.883c-4.634-.48-9.309-.4-13.924.237l-1.68.232c.08.59.176 1.178.305 1.76l.164.735a28.68 28.68 0 001.636 5.076l1.317 3.074a1.695 1.695 0 003.253-.668v-5.805a1.875 1.875 0 113.75 0v5.805a1.695 1.695 0 003.253.668l1.317-3.074a28.678 28.678 0 001.636-5.075l.163-.735a21.8 21.8 0 00.347-2.07l-1.537-.16z" fill="#DC989B"/><path d="M36.976 29.883c-4.634-.48-9.309-.4-13.924.237l-1.68.232c.08.59.176 1.178.305 1.76l.164.735a28.68 28.68 0 001.636 5.076l1.317 3.074a1.682 1.682 0 001.255.982 1.671 1.671 0 001.06-1.542v-5.805a1.875 1.875 0 011.875-1.875c.078.005.155.016.23.032a1.87 1.87 0 012.583 1.735v5.805c.002.09.01.18.027.268.003.037.012.072.018.108a1.691 1.691 0 001.351 1.29c.412-.165.742-.484.919-.89l1.317-3.074a28.678 28.678 0 001.636-5.076l.163-.734c.165-.75.29-1.51.373-2.273l-.625-.065z" fill="#1F5FFF"/><path d="M16 42.122a1.695 1.695 0 001.558-1.028l1.318-3.073a28.688 28.688 0 001.636-5.076l.163-.734c.133-.598.23-1.202.312-1.806l-16.69 2.302.053.238a28.64 28.64 0 001.636 5.076l1.317 3.073a1.695 1.695 0 003.253-.668v-5.804a1.875 1.875 0 013.75 0v5.805A1.695 1.695 0 0016 42.122z" fill="#DC989B"/><path d="M14.39 40.93l.025.08c.056.153.135.298.233.43l.027.032c.221.278.524.48.866.579a1.694 1.694 0 001.08-.957l1.317-3.073a28.688 28.688 0 001.636-5.076l.163-.734c.123-.555.216-1.114.295-1.675l-15.735 2.17.053.239a28.64 28.64 0 001.636 5.076l1.317 3.073c.06.137.14.265.234.381.03.037.063.07.094.103.07.074.146.142.228.202.04.03.08.062.124.088.1.06.206.11.316.148.029.01.054.026.082.035a1.69 1.69 0 001.236-1.624v-5.805a1.852 1.852 0 012.344-1.809 1.851 1.851 0 012.344 1.809v5.805c.002.171.031.341.086.504z" fill="#1F5FFF"/><path d="M40.313 16.975a.935.935 0 01-.297-.048l-2.813-.938a.938.938 0 01.594-1.779l2.812.938a.938.938 0 01-.296 1.827zm2.812-2.812a.938.938 0 01-.889-.642l-.938-2.812a.938.938 0 111.779-.593l.937 2.812a.938.938 0 01-.889 1.235zm3.981 1.742a.938.938 0 01-.663-1.6l2.813-2.813a.937.937 0 111.326 1.326l-2.813 2.813a.934.934 0 01-.663.274z" fill="#FCD795"/><path d="M20.625 42.287H22.5v1.875h-1.875v-1.875zm8.438.937h1.875V45.1h-1.875v-1.875zm9.375-.937h1.874v1.875h-1.874v-1.875zm13.125 0h1.874v1.875h-1.874v-1.875zm-40.313.937h1.875V45.1H11.25v-1.875z" fill="#04CE78"/><path d="M2.813 46.876h54.375v1.036H2.812v-1.036z" fill="#F6A9AC"/><path d="M28.544 27.188a3.27 3.27 0 012.912 0 .938.938 0 00.838-1.677 5.158 5.158 0 00-4.588 0 .937.937 0 10.838 1.677zm21.039-.67c.27 0 .54-.02.806-.064a.936.936 0 00.648-1.418.937.937 0 00-.947-.433 3.27 3.27 0 01-2.777-.872.94.94 0 00-1.538.323.937.937 0 00.236 1.026 5.16 5.16 0 003.572 1.439zm-34.858-.565a5.16 5.16 0 00-4.589 0 .938.938 0 00.839 1.677 3.27 3.27 0 012.911 0 .94.94 0 001.31-1.135.936.936 0 00-.47-.542z" fill="#000D44"/><path d="M57.284 31.042l-.593-.062a22.64 22.64 0 001.367-6.67 3.827 3.827 0 00-6.176-3.207 2.573 2.573 0 01-4.04-1.268 3.827 3.827 0 00-6.9-.897 22.512 22.512 0 00-1.85 3.68c-.064-.292-.125-.585-.2-.875a3.827 3.827 0 00-6.853-1.212 2.537 2.537 0 01-2.117 1.111 2.54 2.54 0 01-2.117-1.111 3.824 3.824 0 00-6.652.641 3.822 3.822 0 00-6.604-.543 2.541 2.541 0 01-2.118 1.11 2.538 2.538 0 01-2.116-1.11 3.827 3.827 0 00-6.854 1.212 22.666 22.666 0 00-.285 10.074l-.492.068a.937.937 0 00-.809.929v15a.937.937 0 00.938.937h54.374a.938.938 0 00.938-.937V31.974a.938.938 0 00-.841-.932zM42.53 19.932a1.953 1.953 0 013.52.457 4.447 4.447 0 006.984 2.192 1.951 1.951 0 013.15 1.636 20.78 20.78 0 01-1.429 6.563l-15.22-1.574c.034-.424.055-.85.065-1.274a20.804 20.804 0 012.93-8zm-12.609 11.78a2.816 2.816 0 00-2.812 2.812v5.805a.758.758 0 01-1.454.298l-1.318-3.073a27.758 27.758 0 01-1.582-4.91l-.163-.735c-.056-.251-.099-.506-.145-.76l.733-.1a57.383 57.383 0 0113.698-.233l.569.058c-.059.347-.122.692-.198 1.035l-.163.735a27.75 27.75 0 01-1.582 4.91l-1.317 3.073a.757.757 0 01-1.454-.298v-5.805a2.815 2.815 0 00-2.812-2.813zm-15.895.6l5.829-.805c-.033.166-.059.334-.096.5l-.164.735a27.842 27.842 0 01-1.581 4.91l-1.318 3.073a.757.757 0 01-1.454-.298v-5.805a2.81 2.81 0 00-1.216-2.31zm25.297-1.243l4.697.486a2.8 2.8 0 00-1.033 1.422l-1.738 5.539a.757.757 0 01-1.476-.151l-.336-3.328a27.82 27.82 0 01-.114-3.968zm8.424.87l6.203.643c-.16.316-.326.63-.504.937l-.375.651a27.898 27.898 0 01-2.98 4.211l-2.177 2.539a.757.757 0 01-1.298-.72l1.738-5.539a2.804 2.804 0 00-.607-2.721zM24.656 20.755a1.953 1.953 0 011.606.843 4.448 4.448 0 003.66 1.92 4.45 4.45 0 003.66-1.92 1.952 1.952 0 013.495.618c.47 1.827.69 3.71.651 5.598-.053.384-.1.77-.134 1.157l-.003.035-.52-.054a59.146 59.146 0 00-14.146.24l-.733.102a21.203 21.203 0 01-.078-1.578c.002-.261.005-.521-.002-.782.036-1.592.255-3.175.654-4.717a1.952 1.952 0 011.89-1.462zm-19.38 1.559a1.952 1.952 0 013.495-.618 4.448 4.448 0 003.66 1.92 4.45 4.45 0 003.66-1.92 1.951 1.951 0 013.495.618c.39 1.51.608 3.06.65 4.619-.006.263 0 .525.004.788-.006.62-.03 1.238-.091 1.854L5.034 31.659a20.777 20.777 0 01.24-9.346zm5.008 10.514a2.785 2.785 0 00-.665 1.795v5.805a.757.757 0 01-1.454.298l-1.318-3.073a27.923 27.923 0 01-1.396-4.158l4.833-.667zM56.25 46.974H3.75V34.427a29.784 29.784 0 001.374 3.963l1.318 3.075a2.633 2.633 0 005.051-1.038v-5.805a.938.938 0 011.875 0v5.805a2.632 2.632 0 005.053 1.037l1.317-3.074a29.587 29.587 0 001.45-4.276 29.622 29.622 0 001.427 4.179l1.318 3.073a2.632 2.632 0 005.052-1.037v-5.805a.938.938 0 011.875 0v5.805a2.632 2.632 0 005.052 1.037l1.316-3.073c.185-.43.359-.865.522-1.304l.158 1.565a2.632 2.632 0 005.131.523l1.738-5.538a.94.94 0 011.5-.444.938.938 0 01.29 1.005l-1.74 5.54a2.636 2.636 0 001.724 3.3 2.629 2.629 0 002.786-.799l2.178-2.538a29.683 29.683 0 003.181-4.495l.375-.652c.313-.542.594-1.102.86-1.669l.318.033.001 14.154z" fill="#000D44"/><path d="M37.203 15.989l2.813.937a.938.938 0 00.593-1.779l-2.812-.937a.938.938 0 00-.594 1.779zm5.033-2.469a.936.936 0 101.778-.592l-.938-2.813a.937.937 0 10-1.778.593l.938 2.813zm4.87 2.385a.934.934 0 00.663-.274l2.813-2.813a.938.938 0 10-1.326-1.326l-2.813 2.813a.938.938 0 00.663 1.6zM20.625 42.287H22.5v1.875h-1.875v-1.875zm8.438.937h1.875V45.1h-1.875v-1.875zm9.375-.937h1.874v1.875h-1.874v-1.875zm13.125 0h1.874v1.875h-1.874v-1.875zm-40.313.937h1.875V45.1H11.25v-1.875z" fill="#000D44"/></svg>