<svg width="40" height="40" fill="none" xmlns="http://www.w3.org/2000/svg"><path d="M24 18.606l-5.03-.424-.242 3.03 4.424.364c-.364-.424-.546-.97-.425-1.515.061-.728.607-1.273 1.273-1.455z" fill="#04CE78"/><path d="M14.12 27.758l-3.393-.667c.06-.303.121-1.515.242-3.394a40.022 40.022 0 01-3.818-.545C6.181 22.97 5.515 22 5.697 21.03c.181-.97 1.151-1.636 2.12-1.454.607.121 1.577.242 2.789.363-.546-.909-1.515-1.575-2.728-1.697-2-.242-3.818 1.213-4 3.213-.181 1.636-.363 3.757-.363 4.545v.242a3.726 3.726 0 001.454 3.152h4.97c.546 0 1.03.545 1.03 1.212v.182l.788.121-.97 5.212c-.181.97.485 1.94 1.455 2.121.91.182 1.94-.424 2.121-1.454l1.334-6.97c.06-.485 0-.97-.303-1.394-.303-.424-.788-.545-1.273-.666z" fill="#000D44"/><path d="M16.121 20.546c-2.182.606-6.364.181-8.424-.243a1.183 1.183 0 00-1.394.97 1.183 1.183 0 00.97 1.394c2.606.485 6.848.97 9.515.242.666-.182 1.03-.848.848-1.515-.182-.667-.848-1.03-1.515-.848zm17.091-5.152a3.394 3.394 0 100-6.788 3.394 3.394 0 000 6.788zM8.121 17.758a3.394 3.394 0 100-6.788 3.394 3.394 0 000 6.788zm21.636 12.727v-2.182h5.455c.909 0 1.212-.727 1.09-1.576 0-1.575-.06-7.757.364-9.333-.666-.97-1.757-1.576-3.03-1.576-1.818 0-3.273 1.273-3.576 3.03 1.697-.242 2.303-.848 2.424-.969.546-.849 1.637-1.09 2.425-.546.848.546 1.151 1.637.606 2.485-.243.425-1.576 2.303-5.576 2.728v3.09c0 .243 0 .485.06.728l-1.636.485c-.424.12-.848.424-1.03.788v7.878c.485-.181.91-.545 1.09-1.03l1.637-4h-.303z" fill="#000D44"/><path d="M24.666 19.212a1.183 1.183 0 00-1.393.97 1.183 1.183 0 00.97 1.394c3.333.545 9.09.788 10.787-2.121.364-.546.182-1.334-.424-1.697-.606-.364-1.273-.182-1.636.424-1.758 1.818-5.819 1.454-8.303 1.03zm3.031 5.878a.607.607 0 00-.606-.605H14.303a.607.607 0 000 1.212h2.121v13.09h10.364v-13.09h.303c.364 0 .606-.242.606-.606zm10.969 12.061v-1.09a1.02 1.02 0 00-1.03-1.03h-2.909v-5.152h1.879c.97 0 1.394-1.879 1.273-2.97l-.303-10.424s-.364.485-.546 1.757l-.06 1.516-.061 7.575c-.06.667-.424 1.576-1.697 1.576h-4.91v1.03h3.213v5.152h-2.91c-.544 0-1.03.424-1.03 1.03v1.091c-.242.182-.424.424-.424.788 0 .485.425.91.91.91a.932.932 0 00.909-.91c0-.303-.182-.606-.425-.788v-1.09c0-.061.06-.122.121-.122h2.91v1.273c-.182.182-.303.424-.303.666 0 .485.424.91.909.91a.933.933 0 00.909-.91c0-.242-.121-.484-.303-.666v-1.334h2.909c.06 0 .121.061.121.122v1.09c-.242.182-.424.425-.424.788 0 .485.424.91.909.91a.933.933 0 00.909-.91c-.121-.363-.303-.666-.546-.788zM9.879 30.06H3.212c-.121-2.363-.788-10.666-2.303-9.817.182 1.939-.545-5.213 1.09 10.484 0 .364.183.667.425.667h1.03l-.606 7.394h.91l.606-7.455H8l.606 7.455h.909l-.606-7.455h1.03c.243 0 .425-.242.425-.606v-.06c-.061-.303-.243-.606-.485-.606z" fill="#000D44"/><path d="M13.151 11.394h9.334c.424.727 1.94 2 3.03 2.848.303.243.727-.12.606-.484l-1.151-2.364h1.272c.546 0 .97-.424.97-.97V2.121a.957.957 0 00-.97-.97h-13.09a.957.957 0 00-.97.97v8.303c0 .546.424.97.97.97zm9.273-7.03c0-.728.606-1.334 1.333-1.334.728 0 1.334.606 1.334 1.334v1.272h-2.667V4.364zm0 2h2.667v1.515c0 .727-.606 1.333-1.334 1.333a1.345 1.345 0 01-1.333-1.333V6.364zm-7.09 1.757l3.272-3.272c1.454 2.06-1.091 4.666-3.273 3.272zm2.908-3.757L14.97 7.697C12.91 5.576 16 2.364 18.242 4.364z" fill="#04CE78"/></svg>